<svg width="1401" height="70" viewBox="0 0 1401 70" fill="none" xmlns="http://www.w3.org/2000/svg">
<rect x="0.159424" y="98.3386" width="1406" height="38" transform="rotate(-7 0.159424 98.3386)" fill="#FCC344"/>
<path d="M232.099 82.0147L232.678 86.7313C233.137 90.4712 235.474 91.9737 240.119 91.4033C241.024 91.2922 242.745 90.9358 243.723 90.6223L244.451 96.5538L247.571 96.1706L245.629 80.3534L242.509 80.7366L243.377 87.8114C242.076 88.2373 240.61 88.5139 239.658 88.6309C237.18 88.9351 236.038 88.3015 235.79 86.2767L235.219 81.6316L232.099 82.0147ZM258.52 91.3443C258.057 92.1024 257.259 92.4906 256.306 92.6076C254.805 92.7919 253.509 92.0806 253.032 90.7608L261.751 89.6903C261.776 89.3004 261.717 89.0175 261.67 88.6363C261.26 85.3014 258.562 83.0212 255.061 83.4511C251.535 83.884 249.374 86.7609 249.789 90.1435C250.21 93.5737 253.12 95.8038 256.645 95.3709C259.099 95.0696 261.159 93.3416 261.76 90.9465L258.52 91.3443ZM252.829 88.5128C252.859 87.1793 254.019 86.1905 255.376 86.0238C256.782 85.8512 257.977 86.5266 258.332 87.8372L252.829 88.5128ZM276.561 86.8563C276.18 83.7596 273.686 81.1643 270.041 81.6118C268.778 81.7668 267.542 82.3297 266.873 83.1856L266.768 82.328L263.766 82.6965L265.752 98.8711L268.754 98.5025L268.049 92.7617C268.905 93.4303 270.244 93.7012 271.506 93.5461C275.151 93.0986 276.941 89.9531 276.561 86.8563ZM273.559 87.2248C273.77 88.94 272.715 90.5928 270.929 90.8121C269.333 91.0081 267.605 90.1321 267.342 87.9882C267.079 85.8443 268.546 84.6002 270.142 84.4043C271.929 84.1849 273.346 85.4859 273.559 87.2248ZM287.111 79.8302L287.638 84.118L282.182 84.7878L281.656 80.5L278.655 80.8685L280.044 92.1835L283.045 91.815L282.504 87.4081L287.959 86.7383L288.5 91.1452L291.502 90.7767L290.112 79.4616L287.111 79.8302ZM298.317 78.14C295.768 78.4529 293.445 80.0196 293.141 82.8618L296.238 82.4816C296.523 81.4552 297.453 80.9542 298.716 80.7991C300.145 80.6237 301.424 80.9986 301.585 82.3087L298.798 82.6509C296.154 82.9756 293.553 84.0445 293.904 86.9031C294.205 89.3567 296.042 90.5335 298.829 90.1913C300.282 90.0129 301.623 89.5098 302.354 88.5737L302.46 89.4312L305.461 89.0627L304.598 82.0355C304.238 79.1055 301.723 77.7217 298.317 78.14ZM301.918 85.0243C302.106 86.5489 300.749 87.5134 299.129 87.7123C297.795 87.8761 297.005 87.3445 296.908 86.5584C296.794 85.6293 297.62 85.0685 299.073 84.8901L301.86 84.5479L301.918 85.0243ZM318.733 87.4331L317.344 76.1181L311.126 76.8815C308.006 77.2646 306.828 79.2952 307.095 81.463C307.293 83.0828 308.231 84.4185 310.001 84.854L307.346 88.8312L311.229 88.3544L313.639 84.7458L315.331 84.5382L315.731 87.8016L318.733 87.4331ZM315.009 81.9178L311.888 82.301C310.864 82.4268 310.204 81.9758 310.096 81.0944C309.982 80.1654 310.519 79.6159 311.543 79.4901L314.664 79.1069L315.009 81.9178ZM325.785 75.0816L327.174 86.3966L330.176 86.0281L329.108 77.3334L334.396 76.6841L335.464 85.3788L338.465 85.0102L337.076 73.6952L325.785 75.0816ZM351.952 83.3543L350.563 72.0393L344.346 72.8027C341.225 73.1858 340.048 75.2164 340.314 77.3841C340.513 79.004 341.45 80.3397 343.221 80.7752L340.566 84.7524L344.449 84.2756L346.859 80.667L348.55 80.4593L348.951 83.7228L351.952 83.3543ZM348.228 77.839L345.108 78.2222C344.083 78.3479 343.424 77.897 343.315 77.0156C343.201 76.0866 343.738 75.537 344.763 75.4113L347.883 75.0281L348.228 77.839ZM364.174 70.368L352.716 71.7748L353.038 74.3952L357.254 73.8775L358.322 82.5722L361.324 82.2036L360.256 73.5089L364.496 72.9883L364.174 70.368ZM374.765 69.0676L375.292 73.3554L369.837 74.0252L369.31 69.7374L366.309 70.1059L367.698 81.4209L370.7 81.0524L370.158 76.6455L375.613 75.9757L376.155 80.3826L379.156 80.0141L377.767 68.6991L374.765 69.0676ZM389.653 67.2395L385.079 75.0795L384.198 67.9093L381.197 68.2779L382.586 79.5929L385.588 79.2244L390.162 71.3844L391.043 78.5546L394.044 78.186L392.655 66.871L389.653 67.2395ZM397.474 77.7649L407.718 76.5072L408.086 79.5086L410.921 79.1606L410.231 73.5388L408.325 73.7728L407.257 65.0781L404.256 65.4466L405.323 74.1413L400.154 74.776L399.087 66.0813L396.085 66.4498L397.474 77.7649ZM416.515 63.627C413.966 63.94 411.644 65.5067 411.34 68.3489L414.436 67.9687C414.722 66.9423 415.651 66.4412 416.914 66.2862C418.343 66.1107 419.622 66.4856 419.783 67.7958L416.996 68.138C414.352 68.4627 411.751 69.5316 412.102 72.3902C412.403 74.8437 414.24 76.0206 417.027 75.6784C418.48 75.5 419.821 74.9969 420.553 74.0607L420.658 74.9183L423.659 74.5498L422.796 67.5225C422.437 64.5925 419.921 63.2088 416.515 63.627ZM420.117 70.5114C420.304 72.0359 418.947 73.0005 417.328 73.1994C415.994 73.3631 415.203 72.8315 415.106 72.0454C414.992 71.1164 415.818 70.5556 417.271 70.3772L420.058 70.035L420.117 70.5114Z" fill="black"/>
<path d="M460.384 53.9847L460.964 58.7013C461.423 62.4412 463.759 63.9437 468.404 63.3733C469.31 63.2622 471.031 62.9057 472.008 62.5923L472.736 68.5238L475.857 68.1406L473.915 52.3234L470.794 52.7066L471.663 59.7814C470.361 60.2072 468.896 60.4839 467.943 60.6009C465.466 60.9051 464.324 60.2715 464.075 58.2467L463.505 53.6016L460.384 53.9847ZM486.806 63.3143C486.343 64.0724 485.544 64.4606 484.591 64.5776C483.091 64.7619 481.794 64.0505 481.318 62.7308L490.036 61.6603C490.061 61.2704 490.002 60.9874 489.955 60.6063C489.546 57.2713 486.848 54.9911 483.346 55.4211C479.821 55.854 477.659 58.7308 478.074 62.1134C478.496 65.5437 481.405 67.7737 484.931 67.3408C487.384 67.0396 489.445 65.3116 490.046 62.9165L486.806 63.3143ZM481.114 60.4828C481.144 59.1492 482.304 58.1605 483.662 57.9938C485.068 57.8212 486.263 58.4966 486.617 59.8072L481.114 60.4828ZM504.846 58.8263C504.466 55.7295 501.971 53.1342 498.327 53.5817C497.064 53.7368 495.827 54.2997 495.159 55.1555L495.053 54.298L492.052 54.6665L494.038 70.841L497.039 70.4725L496.334 64.7316C497.19 65.4003 498.529 65.6711 499.792 65.5161C503.436 65.0686 505.226 61.923 504.846 58.8263ZM501.845 59.1948C502.055 60.9099 501.001 62.5628 499.214 62.7821C497.618 62.9781 495.891 62.1021 495.627 59.9582C495.364 57.8143 496.832 56.5702 498.428 56.3742C500.214 56.1549 501.631 57.4559 501.845 59.1948ZM515.397 51.8001L515.923 56.0879L510.468 56.7577L509.942 52.4699L506.94 52.8385L508.329 64.1535L511.331 63.785L510.79 59.3781L516.245 58.7083L516.786 63.1152L519.787 62.7466L518.398 51.4316L515.397 51.8001ZM526.602 50.1099C524.053 50.4229 521.731 51.9896 521.427 54.8318L524.524 54.4516C524.809 53.4252 525.739 52.9241 527.001 52.7691C528.43 52.5936 529.71 52.9685 529.871 54.2787L527.083 54.6209C524.439 54.9456 521.838 56.0145 522.189 58.8731C522.49 61.3266 524.328 62.5035 527.115 62.1613C528.568 61.9829 529.908 61.4797 530.64 60.5436L530.745 61.4012L533.747 61.0327L532.884 54.0054C532.524 51.0754 530.009 49.6917 526.602 50.1099ZM530.204 56.9943C530.391 58.5188 529.035 59.4834 527.415 59.6822C526.081 59.846 525.29 59.3144 525.194 58.5283C525.08 57.5993 525.905 57.0385 527.358 56.8601L530.146 56.5179L530.204 56.9943ZM547.018 59.4031L545.629 48.0881L539.412 48.8514C536.291 49.2346 535.114 51.2652 535.38 53.4329C535.579 55.0528 536.517 56.3884 538.287 56.8239L535.632 60.8012L539.515 60.3244L541.925 56.7158L543.616 56.5081L544.017 59.7716L547.018 59.4031ZM543.295 53.8878L540.174 54.271C539.15 54.3967 538.49 53.9458 538.382 53.0644C538.268 52.1354 538.805 51.5858 539.829 51.4601L542.949 51.0769L543.295 53.8878ZM554.071 47.0516L555.46 58.3666L558.461 57.9981L557.394 49.3034L562.682 48.654L563.75 57.3488L566.751 56.9802L565.362 45.6652L554.071 47.0516ZM580.238 55.3243L578.848 44.0092L572.631 44.7726C569.511 45.1558 568.333 47.1864 568.599 49.3541C568.798 50.974 569.736 52.3096 571.506 52.7451L568.851 56.7224L572.734 56.2456L575.144 52.637L576.836 52.4293L577.236 55.6928L580.238 55.3243ZM576.514 49.809L573.393 50.1921C572.369 50.3179 571.709 49.867 571.601 48.9856C571.487 48.0566 572.024 47.507 573.048 47.3813L576.169 46.9981L576.514 49.809ZM592.46 42.338L581.002 43.7448L581.324 46.3651L585.54 45.8474L586.608 54.5421L589.609 54.1736L588.542 45.4789L592.782 44.9583L592.46 42.338ZM603.051 41.0376L603.577 45.3254L598.122 45.9951L597.596 41.7073L594.594 42.0759L595.984 53.3909L598.985 53.0224L598.444 48.6155L603.899 47.9457L604.44 52.3526L607.442 51.984L606.052 40.669L603.051 41.0376ZM617.939 39.2095L613.364 47.0495L612.484 39.8793L609.483 40.2478L610.872 51.5629L613.873 51.1943L618.448 43.3544L619.328 50.5245L622.33 50.156L620.941 38.841L617.939 39.2095ZM625.76 49.7348L636.003 48.4771L636.372 51.4786L639.206 51.1305L638.516 45.5088L636.61 45.7427L635.543 37.048L632.541 37.4166L633.609 46.1113L628.44 46.746L627.372 38.0513L624.371 38.4198L625.76 49.7348ZM644.8 35.597C642.252 35.91 639.929 37.4767 639.625 40.3189L642.722 39.9387C643.007 38.9123 643.937 38.4112 645.2 38.2562C646.629 38.0807 647.908 38.4556 648.069 39.7658L645.282 40.108C642.638 40.4326 640.037 41.5016 640.388 44.3601C640.689 46.8137 642.526 47.9906 645.313 47.6484C646.766 47.47 648.107 46.9668 648.838 46.0307L648.943 46.8883L651.945 46.5197L651.082 39.4925C650.722 36.5625 648.207 35.1787 644.8 35.597ZM648.402 42.4814C648.589 44.0059 647.233 44.9704 645.613 45.1693C644.279 45.3331 643.488 44.8015 643.392 44.0154C643.278 43.0864 644.104 42.5256 645.557 42.3472L648.344 42.0049L648.402 42.4814Z" fill="black"/>
<path d="M688.67 25.9547L689.249 30.6713C689.708 34.4112 692.045 35.9136 696.69 35.3433C697.595 35.2321 699.317 34.8757 700.294 34.5623L701.022 40.4937L704.143 40.1106L702.201 24.2934L699.08 24.6765L699.949 31.7514C698.647 32.1772 697.182 32.4538 696.229 32.5708C693.751 32.875 692.61 32.2414 692.361 30.2166L691.791 25.5715L688.67 25.9547ZM715.092 35.2843C714.628 36.0424 713.83 36.4306 712.877 36.5476C711.376 36.7318 710.08 36.0205 709.604 34.7007L718.322 33.6302C718.347 33.2403 718.288 32.9574 718.241 32.5763C717.832 29.2413 715.134 26.9611 711.632 27.3911C708.106 27.8239 705.945 30.7008 706.36 34.0834C706.781 37.5136 709.691 39.7437 713.216 39.3108C715.67 39.0096 717.731 37.2815 718.331 34.8865L715.092 35.2843ZM709.4 32.4528C709.43 31.1192 710.59 30.1305 711.948 29.9637C713.353 29.7912 714.548 30.4666 714.903 31.7771L709.4 32.4528ZM733.132 30.7963C732.752 27.6995 730.257 25.1042 726.612 25.5517C725.35 25.7067 724.113 26.2696 723.444 27.1255L723.339 26.2679L720.338 26.6365L722.324 42.811L725.325 42.4425L724.62 36.7016C725.476 37.3703 726.815 37.6411 728.078 37.4861C731.722 37.0386 733.512 33.893 733.132 30.7963ZM730.13 31.1648C730.341 32.8799 729.287 34.5327 727.5 34.7521C725.904 34.9481 724.176 34.0721 723.913 31.9282C723.65 29.7843 725.117 28.5402 726.713 28.3442C728.5 28.1248 729.917 29.4258 730.13 31.1648ZM743.682 23.7701L744.209 28.0579L738.754 28.7277L738.227 24.4399L735.226 24.8084L736.615 36.1235L739.617 35.7549L739.075 31.348L744.53 30.6782L745.072 35.0851L748.073 34.7166L746.684 23.4016L743.682 23.7701ZM754.888 22.0799C752.339 22.3929 750.017 23.9596 749.713 26.8018L752.809 26.4216C753.094 25.3952 754.024 24.8941 755.287 24.7391C756.716 24.5636 757.995 24.9385 758.156 26.2487L755.369 26.5909C752.725 26.9155 750.124 27.9845 750.475 30.843C750.776 33.2966 752.613 34.4735 755.4 34.1313C756.853 33.9529 758.194 33.4497 758.925 32.5136L759.031 33.3712L762.032 33.0026L761.169 25.9754C760.81 23.0454 758.294 21.6616 754.888 22.0799ZM758.49 28.9643C758.677 30.4888 757.32 31.4533 755.7 31.6522C754.366 31.816 753.576 31.2844 753.479 30.4983C753.365 29.5693 754.191 29.0085 755.644 28.83L758.431 28.4878L758.49 28.9643ZM775.304 31.3731L773.915 20.058L767.697 20.8214C764.577 21.2046 763.4 23.2352 763.666 25.4029C763.865 27.0227 764.802 28.3584 766.573 28.7939L763.918 32.7711L767.8 32.2944L770.211 28.6858L771.902 28.4781L772.303 31.7416L775.304 31.3731ZM771.58 25.8578L768.46 26.2409C767.435 26.3667 766.775 25.9158 766.667 25.0344C766.553 24.1053 767.09 23.5558 768.114 23.43L771.235 23.0469L771.58 25.8578ZM782.356 19.0215L783.746 30.3366L786.747 29.968L785.679 21.2733L790.968 20.624L792.035 29.3187L795.037 28.9502L793.647 17.6352L782.356 19.0215ZM808.523 27.2942L807.134 15.9792L800.917 16.7426C797.796 17.1258 796.619 19.1564 796.885 21.3241C797.084 22.9439 798.022 24.2796 799.792 24.7151L797.137 28.6923L801.02 28.2156L803.43 24.6069L805.121 24.3993L805.522 27.6628L808.523 27.2942ZM804.799 21.779L801.679 22.1621C800.655 22.2879 799.995 21.8369 799.887 20.9556C799.772 20.0265 800.309 19.477 801.334 19.3512L804.454 18.9681L804.799 21.779ZM820.746 14.3079L809.288 15.7148L809.609 18.3351L813.826 17.8174L814.893 26.5121L817.895 26.1436L816.827 17.4489L821.067 16.9282L820.746 14.3079ZM831.337 13.0075L831.863 17.2953L826.408 17.9651L825.881 13.6773L822.88 14.0459L824.269 25.3609L827.271 24.9923L826.73 20.5854L832.185 19.9156L832.726 24.3226L835.727 23.954L834.338 12.639L831.337 13.0075ZM846.225 11.1795L841.65 19.0194L840.77 11.8493L837.768 12.2178L839.158 23.5328L842.159 23.1643L846.734 15.3244L847.614 22.4945L850.615 22.126L849.226 10.811L846.225 11.1795ZM854.046 21.7048L864.289 20.4471L864.657 23.4486L867.492 23.1005L866.802 17.4787L864.896 17.7127L863.828 9.01801L860.827 9.38654L861.895 18.0812L856.725 18.7159L855.658 10.0212L852.656 10.3898L854.046 21.7048ZM873.086 7.56697C870.537 7.87994 868.215 9.44664 867.911 12.2889L871.008 11.9086C871.293 10.8822 872.223 10.3812 873.485 10.2262C874.914 10.0507 876.194 10.4256 876.355 11.7357L873.567 12.0779C870.923 12.4026 868.322 13.4716 868.673 16.3301C868.974 18.7837 870.812 19.9606 873.599 19.6183C875.052 19.4399 876.392 18.9368 877.124 18.0007L877.229 18.8582L880.23 18.4897L879.368 11.4625C879.008 8.53249 876.493 7.14872 873.086 7.56697ZM876.688 14.4513C876.875 15.9759 875.519 16.9404 873.899 17.1393C872.565 17.3031 871.774 16.7715 871.678 15.9854C871.563 15.0564 872.389 14.4955 873.842 14.3171L876.629 13.9749L876.688 14.4513Z" fill="black"/>
<path d="M916.956 -2.0751L917.535 2.64148C917.994 6.3814 920.331 7.88384 924.976 7.3135C925.881 7.20235 927.602 6.84591 928.579 6.5325L929.308 12.464L932.428 12.0808L930.486 -3.73642L927.366 -3.35326L928.234 3.72161C926.932 4.14743 925.467 4.42406 924.514 4.54105C922.037 4.84524 920.895 4.21166 920.647 2.18686L920.076 -2.45826L916.956 -2.0751ZM943.377 7.25448C942.914 8.01257 942.116 8.40079 941.163 8.51778C939.662 8.70205 938.366 7.99073 937.889 6.67095L946.608 5.60045C946.632 5.21054 946.573 4.92761 946.527 4.54647C946.117 1.21152 943.419 -1.06867 939.917 -0.638719C936.392 -0.205839 934.23 2.67103 934.646 6.05362C935.067 9.48386 937.976 11.7139 941.502 11.281C943.956 10.9798 946.016 9.25175 946.617 6.8567L943.377 7.25448ZM937.686 4.42299C937.715 3.08943 938.876 2.10068 940.233 1.93396C941.639 1.76139 942.834 2.43677 943.188 3.74735L937.686 4.42299ZM961.418 2.76647C961.037 -0.33028 958.542 -2.92557 954.898 -2.47807C953.635 -2.32305 952.399 -1.76015 951.73 -0.90428L951.625 -1.76184L948.623 -1.39331L950.609 14.7812L953.611 14.4127L952.906 8.67181C953.762 9.34049 955.101 9.61132 956.363 9.45631C960.008 9.0088 961.798 5.86321 961.418 2.76647ZM958.416 3.135C958.627 4.85012 957.572 6.50294 955.786 6.72231C954.19 6.91827 952.462 6.04229 952.199 3.89839C951.936 1.75449 953.403 0.510393 954.999 0.314427C956.785 0.0950625 958.203 1.39606 958.416 3.135ZM971.968 -4.25967L972.494 0.0281258L967.039 0.69792L966.513 -3.58988L963.511 -3.22135L964.901 8.09368L967.902 7.72515L967.361 3.31824L972.816 2.64845L973.357 7.05535L976.359 6.68682L974.969 -4.62821L971.968 -4.25967ZM983.173 -5.94988C980.625 -5.63692 978.302 -4.07022 977.998 -1.228L981.095 -1.60823C981.38 -2.63462 982.31 -3.13568 983.572 -3.29069C985.002 -3.46619 986.281 -3.09129 986.442 -1.78113L983.655 -1.43892C981.011 -1.11426 978.41 -0.0452957 978.761 2.81324C979.062 5.26681 980.899 6.4437 983.686 6.10149C985.139 5.92307 986.48 5.41993 987.211 4.48382L987.316 5.34138L990.318 4.97285L989.455 -2.05438C989.095 -4.98437 986.58 -6.36814 983.173 -5.94988ZM986.775 0.934478C986.962 2.45903 985.606 3.42354 983.986 3.62243C982.652 3.78622 981.861 3.25462 981.765 2.46853C981.651 1.5395 982.477 0.978681 983.93 0.800264L986.717 0.458055L986.775 0.934478ZM1003.59 3.34327L1002.2 -7.97176L995.983 -7.20837C992.863 -6.82521 991.685 -4.7946 991.951 -2.62688C992.15 -1.00704 993.088 0.328627 994.858 0.764131L992.203 4.74135L996.086 4.2646L998.496 0.655972L1000.19 0.448307L1000.59 3.7118L1003.59 3.34327ZM999.866 -2.17201L996.745 -1.78886C995.721 -1.66309 995.061 -2.11403 994.953 -2.99541C994.839 -3.92444 995.376 -4.47398 996.4 -4.59975L999.521 -4.98291L999.866 -2.17201ZM1010.64 -9.00824L1012.03 2.30679L1015.03 1.93826L1013.97 -6.75645L1019.25 -7.40577L1020.32 1.28894L1023.32 0.920405L1021.93 -10.3946L1010.64 -9.00824ZM1036.81 -0.735548L1035.42 -12.0506L1029.2 -11.2872C1026.08 -10.904 1024.9 -8.87342 1025.17 -6.70569C1025.37 -5.08586 1026.31 -3.75019 1028.08 -3.31468L1025.42 0.662537L1029.31 0.185784L1031.72 -3.42284L1033.41 -3.63051L1033.81 -0.367016L1036.81 -0.735548ZM1033.09 -6.25083L1029.96 -5.86767C1028.94 -5.7419 1028.28 -6.19285 1028.17 -7.07423C1028.06 -8.00325 1028.6 -8.55279 1029.62 -8.67856L1032.74 -9.06172L1033.09 -6.25083ZM1049.03 -13.7219L1037.57 -12.315L1037.9 -9.69468L1042.11 -10.2124L1043.18 -1.51768L1046.18 -1.88621L1045.11 -10.5809L1049.35 -11.1015L1049.03 -13.7219ZM1059.62 -15.0223L1060.15 -10.7345L1054.69 -10.0647L1054.17 -14.3525L1051.17 -13.9839L1052.55 -2.66891L1055.56 -3.03744L1055.02 -7.44434L1060.47 -8.11414L1061.01 -3.70723L1064.01 -4.07577L1062.62 -15.3908L1059.62 -15.0223ZM1074.51 -16.8503L1069.94 -9.01035L1069.06 -16.1805L1066.05 -15.812L1067.44 -4.49695L1070.44 -4.86548L1075.02 -12.7054L1075.9 -5.53527L1078.9 -5.90381L1077.51 -17.2188L1074.51 -16.8503ZM1082.33 -6.32499L1092.57 -7.58268L1092.94 -4.58122L1095.78 -4.92928L1095.09 -10.5511L1093.18 -10.3171L1092.11 -19.0118L1089.11 -18.6432L1090.18 -9.94854L1085.01 -9.31384L1083.94 -18.0085L1080.94 -17.64L1082.33 -6.32499ZM1101.37 -20.4628C1098.82 -20.1498 1096.5 -18.5831 1096.2 -15.7409L1099.29 -16.1212C1099.58 -17.1475 1100.51 -17.6486 1101.77 -17.8036C1103.2 -17.9791 1104.48 -17.6042 1104.64 -16.2941L1101.85 -15.9518C1099.21 -15.6272 1096.61 -14.5582 1096.96 -11.6997C1097.26 -9.24611 1099.1 -8.06923 1101.88 -8.41144C1103.34 -8.58986 1104.68 -9.09299 1105.41 -10.0291L1105.51 -9.17154L1108.52 -9.54008L1107.65 -16.5673C1107.29 -19.4973 1104.78 -20.8811 1101.37 -20.4628ZM1104.97 -13.5784C1105.16 -12.0539 1103.8 -11.0894 1102.18 -10.8905C1100.85 -10.7267 1100.06 -11.2583 1099.96 -12.0444C1099.85 -12.9734 1100.67 -13.5342 1102.13 -13.7127L1104.92 -14.0549L1104.97 -13.5784Z" fill="black"/>
</svg>
