<svg width="1283" height="70" viewBox="0 0 1283 70" fill="none" xmlns="http://www.w3.org/2000/svg">
<rect x="-109.901" y="-105.661" width="1406" height="38" transform="rotate(8 -109.901 -105.661)" fill="#FCC344"/>
<path d="M346.122 -29.3889L345.46 -24.6832C344.936 -20.9519 346.804 -18.8959 351.438 -18.2445C352.341 -18.1176 354.096 -18.0164 355.121 -18.0662L354.29 -12.1484L357.403 -11.7108L359.621 -27.4917L356.507 -27.9293L355.515 -20.8707C354.148 -20.7963 352.661 -20.9083 351.71 -21.0419C349.239 -21.3893 348.3 -22.2968 348.584 -24.3169L349.235 -28.9514L346.122 -29.3889ZM369.228 -13.5389C368.585 -12.9265 367.713 -12.7582 366.762 -12.8918C365.265 -13.1022 364.197 -14.1248 364.078 -15.5229L372.777 -14.3004C372.901 -14.6707 372.918 -14.9592 372.971 -15.3395C373.439 -18.6668 371.423 -21.5676 367.929 -22.0586C364.412 -22.5529 361.579 -20.3335 361.105 -16.9587C360.624 -13.5363 362.857 -10.6292 366.375 -10.1349C368.822 -9.79086 371.26 -10.9266 372.46 -13.0846L369.228 -13.5389ZM364.463 -17.747C364.837 -19.0274 366.214 -19.6822 367.568 -19.4918C368.971 -19.2947 369.95 -18.333 369.953 -16.9754L364.463 -17.747ZM387.815 -13.2048C388.249 -16.2944 386.511 -19.447 382.875 -19.9581C381.615 -20.1351 380.275 -19.9114 379.408 -19.2578L379.528 -20.1134L376.534 -20.5342L374.266 -4.39683L377.26 -3.97597L378.065 -9.70368C378.719 -8.83627 379.942 -8.22811 381.202 -8.05108C384.838 -7.54004 387.381 -10.1152 387.815 -13.2048ZM384.821 -13.6257C384.58 -11.9145 383.134 -10.5909 381.351 -10.8414C379.759 -11.0652 378.317 -12.3585 378.618 -14.4974C378.918 -16.6364 380.658 -17.4584 382.25 -17.2346C384.032 -16.984 385.064 -15.3606 384.821 -13.6257ZM399.825 -17.2609L399.223 -12.9829L393.781 -13.7478L394.382 -18.0258L391.388 -18.4466L389.801 -7.15759L392.796 -6.73673L393.413 -11.1335L398.856 -10.3686L398.238 -5.97183L401.233 -5.55097L402.819 -16.84L399.825 -17.2609ZM411.086 -15.9933C408.543 -16.3507 405.894 -15.4385 404.865 -12.7717L407.955 -12.3375C408.496 -13.2552 409.523 -13.4985 410.783 -13.3214C412.209 -13.121 413.348 -12.4278 413.164 -11.1207L410.383 -11.5115C407.745 -11.8822 404.956 -11.5229 404.555 -8.67093C404.211 -6.22299 405.681 -4.61072 408.462 -4.21992C409.911 -4.01617 411.337 -4.15518 412.285 -4.8701L412.165 -4.0145L415.16 -3.59364L416.145 -10.6047C416.556 -13.528 414.484 -15.5157 411.086 -15.9933ZM412.783 -8.41129C412.569 -6.89024 411.009 -6.3097 409.393 -6.53683C408.062 -6.72388 407.436 -7.44201 407.546 -8.2263C407.677 -9.15319 408.619 -9.48117 410.069 -9.27742L412.85 -8.88662L412.783 -8.41129ZM428.401 -1.73268L429.988 -13.0217L423.785 -13.8935C420.671 -14.3311 419.009 -12.6744 418.705 -10.5116C418.477 -8.8955 419.038 -7.36263 420.635 -6.48379L417.041 -3.32928L420.915 -2.78483L424.177 -5.64669L425.864 -5.40954L425.407 -2.15354L428.401 -1.73268ZM426.232 -8.02385L423.118 -8.46141C422.096 -8.60504 421.576 -9.2114 421.699 -10.0908C421.829 -11.0177 422.49 -11.4095 423.512 -11.2659L426.626 -10.8283L426.232 -8.02385ZM438.41 -11.8381L436.823 -0.549041L439.818 -0.128182L441.037 -8.80293L446.313 -8.06142L445.094 0.613333L448.089 1.03419L449.675 -10.2549L438.41 -11.8381ZM461.544 2.92527L463.131 -8.36379L456.928 -9.23557C453.814 -9.67313 452.152 -8.01642 451.848 -5.85367C451.621 -4.23755 452.181 -2.70468 453.778 -1.82584L450.184 1.32867L454.058 1.87312L457.32 -0.988745L459.007 -0.751594L458.55 2.50441L461.544 2.92527ZM459.375 -3.3659L456.261 -3.80346C455.239 -3.94709 454.719 -4.55345 454.842 -5.43281C454.972 -6.3597 455.633 -6.75153 456.655 -6.6079L459.769 -6.17034L459.375 -3.3659ZM476.711 -6.4552L465.279 -8.06182L464.912 -5.44751L469.119 -4.8563L467.899 3.81845L470.894 4.23931L472.113 -4.43544L476.344 -3.8409L476.711 -6.4552ZM487.278 -4.97017L486.676 -0.692208L481.234 -1.4571L481.835 -5.73506L478.841 -6.15592L477.254 5.13314L480.249 5.554L480.867 1.1572L486.309 1.9221L485.691 6.31889L488.686 6.73975L490.272 -4.54931L487.278 -4.97017ZM502.132 -2.88257L495.684 3.50623L496.689 -3.64747L493.695 -4.06832L492.108 7.22073L495.103 7.64159L501.55 1.25279L500.545 8.40649L503.54 8.82735L505.126 -2.46171L502.132 -2.88257ZM506.962 9.30833L517.182 10.7446L516.761 13.7392L519.589 14.1366L520.377 8.52777L518.476 8.26055L519.695 -0.414196L516.701 -0.835055L515.481 7.83969L510.324 7.11488L511.543 -1.55987L508.549 -1.98073L506.962 9.30833ZM529.013 0.580257C526.47 0.222861 523.821 1.13511 522.792 3.80183L525.882 4.23605C526.423 3.31841 527.45 3.07509 528.71 3.25212C530.136 3.45253 531.275 4.14574 531.091 5.45289L528.31 5.06209C525.672 4.69134 522.883 5.05066 522.482 7.90263C522.138 10.3506 523.608 11.9628 526.389 12.3536C527.838 12.5574 529.264 12.4184 530.212 11.7035L530.092 12.5591L533.087 12.9799L534.072 5.96882C534.483 3.04555 532.411 1.0579 529.013 0.580257ZM530.71 8.16227C530.496 9.68332 528.936 10.2639 527.32 10.0367C525.989 9.84968 525.363 9.13155 525.473 8.34726C525.604 7.42037 526.546 7.09239 527.996 7.29614L530.777 7.68694L530.71 8.16227Z" fill="black"/>
<path d="M573.883 2.62082L573.222 7.32658C572.697 11.0579 574.566 13.1139 579.2 13.7652C580.103 13.8922 581.858 13.9934 582.883 13.9435L582.051 19.8614L585.165 20.2989L587.383 4.51803L584.269 4.08047L583.277 11.1391C581.909 11.2135 580.423 11.1015 579.472 10.9679C577 10.6205 576.061 9.71299 576.345 7.69284L576.997 3.05838L573.883 2.62082ZM596.99 18.4709C596.346 19.0833 595.474 19.2516 594.524 19.118C593.026 18.9075 591.958 17.8849 591.84 16.4868L600.538 17.7093C600.663 17.3391 600.679 17.0505 600.733 16.6703C601.2 13.343 599.184 10.4422 595.691 9.95119C592.173 9.45684 589.341 11.6762 588.867 15.0511C588.386 18.4734 590.619 21.3805 594.136 21.8749C596.584 22.2189 599.022 21.0831 600.222 18.9251L596.99 18.4709ZM592.225 14.2628C592.599 12.9824 593.975 12.3276 595.33 12.518C596.732 12.715 597.712 13.6767 597.715 15.0344L592.225 14.2628ZM615.577 18.805C616.011 15.7153 614.273 12.5627 610.637 12.0517C609.377 11.8747 608.037 12.0983 607.169 12.752L607.29 11.8964L604.295 11.4755L602.027 27.6129L605.022 28.0338L605.827 22.3061C606.48 23.1735 607.704 23.7817 608.963 23.9587C612.6 24.4697 615.143 21.8946 615.577 18.805ZM612.582 18.3841C612.342 20.0953 610.896 21.4189 609.113 21.1684C607.521 20.9446 606.079 19.6513 606.379 17.5123C606.68 15.3733 608.419 14.5514 610.012 14.7752C611.794 15.0257 612.826 16.6492 612.582 18.3841ZM627.586 14.7489L626.985 19.0268L621.543 18.2619L622.144 13.984L619.149 13.5631L617.563 24.8522L620.557 25.273L621.175 20.8762L626.618 21.6411L626 26.0379L628.994 26.4588L630.581 15.1697L627.586 14.7489ZM638.847 16.0165C636.304 15.6591 633.656 16.5713 632.627 19.238L635.716 19.6723C636.257 18.7546 637.285 18.5113 638.545 18.6883C639.971 18.8887 641.109 19.5819 640.926 20.8891L638.145 20.4983C635.507 20.1275 632.718 20.4869 632.317 23.3388C631.973 25.7868 633.443 27.399 636.223 27.7898C637.673 27.9936 639.098 27.8546 640.047 27.1397L639.927 27.9953L642.921 28.4161L643.907 21.405C644.318 18.4818 642.246 16.4941 638.847 16.0165ZM640.545 23.5985C640.331 25.1195 638.771 25.7001 637.155 25.4729C635.824 25.2859 635.198 24.5678 635.308 23.7835C635.438 22.8566 636.381 22.5286 637.831 22.7323L640.612 23.1231L640.545 23.5985ZM656.163 30.2771L657.749 18.988L651.546 18.1162C648.433 17.6787 646.77 19.3354 646.466 21.4981C646.239 23.1143 646.799 24.6471 648.396 25.526L644.802 28.6805L648.676 29.2249L651.938 26.3631L653.626 26.6002L653.168 29.8562L656.163 30.2771ZM653.993 23.9859L650.88 23.5484C649.858 23.4047 649.337 22.7984 649.461 21.919C649.591 20.9921 650.252 20.6003 651.274 20.7439L654.387 21.1815L653.993 23.9859ZM666.171 20.1717L664.585 31.4607L667.579 31.8816L668.799 23.2068L674.075 23.9483L672.856 32.6231L675.85 33.044L677.437 21.7549L666.171 20.1717ZM689.306 34.935L690.892 23.646L684.689 22.7742C681.576 22.3366 679.913 23.9933 679.609 26.1561C679.382 27.7722 679.942 29.3051 681.54 30.1839L677.946 33.3384L681.819 33.8829L685.081 31.021L686.769 31.2582L686.311 34.5142L689.306 34.935ZM687.136 28.6439L684.023 28.2063C683.001 28.0627 682.48 27.4563 682.604 26.577C682.734 25.6501 683.395 25.2582 684.417 25.4019L687.53 25.8394L687.136 28.6439ZM704.473 25.5546L693.041 23.9479L692.674 26.5623L696.88 27.1535L695.661 35.8282L698.656 36.2491L699.875 27.5743L704.105 28.1689L704.473 25.5546ZM715.039 27.0396L714.438 31.3176L708.996 30.5527L709.597 26.2747L706.602 25.8538L705.016 37.1429L708.01 37.5638L708.628 33.167L714.071 33.9319L713.453 38.3287L716.447 38.7495L718.034 27.4605L715.039 27.0396ZM729.893 29.1272L723.445 35.516L724.451 28.3623L721.456 27.9414L719.87 39.2305L722.864 39.6514L729.312 33.2626L728.307 40.4163L731.301 40.8371L732.888 29.5481L729.893 29.1272ZM734.724 41.3181L744.943 42.7544L744.522 45.7489L747.351 46.1464L748.139 40.5375L746.238 40.2703L747.457 31.5956L744.462 31.1747L743.243 39.8495L738.086 39.1246L739.305 30.4499L736.31 30.029L734.724 41.3181ZM756.774 32.59C754.231 32.2326 751.583 33.1449 750.554 35.8116L753.643 36.2458C754.184 35.3282 755.212 35.0849 756.472 35.2619C757.898 35.4623 759.036 36.1555 758.853 37.4627L756.072 37.0719C753.434 36.7011 750.645 37.0604 750.244 39.9124C749.9 42.3603 751.37 43.9726 754.15 44.3634C755.6 44.5672 757.025 44.4281 757.974 43.7132L757.854 44.5688L760.848 44.9897L761.834 37.9786C762.245 35.0553 760.173 33.0677 756.774 32.59ZM758.472 40.172C758.258 41.6931 756.698 42.2736 755.082 42.0465C753.751 41.8594 753.125 41.1413 753.235 40.357C753.365 39.4301 754.308 39.1022 755.758 39.3059L758.539 39.6967L758.472 40.172Z" fill="black"/>
<path d="M801.645 34.6306L800.984 39.3363C800.459 43.0677 802.327 45.1237 806.962 45.775C807.865 45.9019 809.62 46.0032 810.645 45.9533L809.813 51.8712L812.926 52.3087L815.144 36.5278L812.031 36.0902L811.039 43.1489C809.671 43.2233 808.184 43.1112 807.234 42.9776C804.762 42.6302 803.823 41.7228 804.107 39.7026L804.758 35.0682L801.645 34.6306ZM824.751 50.4806C824.108 51.093 823.236 51.2613 822.285 51.1277C820.788 50.9173 819.72 49.8947 819.601 48.4966L828.3 49.7191C828.425 49.3488 828.441 49.0603 828.494 48.68C828.962 45.3527 826.946 42.452 823.452 41.961C819.935 41.4666 817.103 43.686 816.628 47.0608C816.147 50.4832 818.38 53.3903 821.898 53.8846C824.346 54.2287 826.784 53.0929 827.984 50.9349L824.751 50.4806ZM819.987 46.2726C820.36 44.9921 821.737 44.3373 823.092 44.5277C824.494 44.7248 825.474 45.6865 825.477 47.0441L819.987 46.2726ZM843.339 50.8147C843.773 47.7251 842.035 44.5725 838.398 44.0615C837.139 43.8844 835.799 44.1081 834.931 44.7617L835.051 43.9061L832.057 43.4853L829.789 59.6227L832.783 60.0436L833.588 54.3158C834.242 55.1833 835.465 55.7914 836.725 55.9685C840.361 56.4795 842.904 53.9044 843.339 50.8147ZM840.344 50.3939C840.104 52.1051 838.657 53.4287 836.875 53.1781C835.282 52.9544 833.84 51.6611 834.141 49.5221C834.442 47.3831 836.181 46.5612 837.773 46.785C839.556 47.0355 840.588 48.6589 840.344 50.3939ZM855.348 46.7586L854.747 51.0366L849.304 50.2717L849.905 45.9937L846.911 45.5729L845.324 56.8619L848.319 57.2828L848.937 52.886L854.379 53.6509L853.761 58.0477L856.756 58.4686L858.343 47.1795L855.348 46.7586ZM866.609 48.0262C864.066 47.6688 861.417 48.5811 860.388 51.2478L863.478 51.682C864.019 50.7644 865.047 50.5211 866.306 50.6981C867.732 50.8985 868.871 51.5917 868.687 52.8989L865.907 52.5081C863.268 52.1373 860.479 52.4966 860.079 55.3486C859.734 57.7965 861.204 59.4088 863.985 59.7996C865.435 60.0034 866.86 59.8644 867.809 59.1494L867.689 60.005L870.683 60.4259L871.668 53.4148C872.079 50.4915 870.008 48.5039 866.609 48.0262ZM868.306 55.6082C868.093 57.1293 866.533 57.7098 864.917 57.4827C863.586 57.2957 862.96 56.5775 863.07 55.7932C863.2 54.8663 864.143 54.5384 865.593 54.7421L868.373 55.1329L868.306 55.6082ZM883.925 62.2868L885.511 50.9978L879.308 50.126C876.195 49.6885 874.532 51.3452 874.228 53.5079C874.001 55.124 874.561 56.6569 876.158 57.5357L872.564 60.6903L876.438 61.2347L879.7 58.3728L881.388 58.61L880.93 61.866L883.925 62.2868ZM881.755 55.9957L878.642 55.5581C877.62 55.4145 877.099 54.8081 877.223 53.9288C877.353 53.0019 878.014 52.6101 879.036 52.7537L882.149 53.1912L881.755 55.9957ZM893.933 52.1814L892.347 63.4705L895.341 63.8913L896.56 55.2166L901.836 55.9581L900.617 64.6329L903.612 65.0537L905.198 53.7647L893.933 52.1814ZM917.068 66.9448L918.654 55.6557L912.451 54.784C909.338 54.3464 907.675 56.0031 907.371 58.1659C907.144 59.782 907.704 61.3148 909.301 62.1937L905.707 65.3482L909.581 65.8927L912.843 63.0308L914.531 63.2679L914.073 66.5239L917.068 66.9448ZM914.898 60.6536L911.785 60.2161C910.763 60.0724 910.242 59.4661 910.366 58.5867C910.496 57.6598 911.157 57.268 912.179 57.4116L915.292 57.8492L914.898 60.6536ZM932.234 57.5643L920.803 55.9577L920.435 58.572L924.642 59.1632L923.423 67.838L926.417 68.2588L927.637 59.5841L931.867 60.1786L932.234 57.5643ZM942.801 59.0494L942.2 63.3273L936.757 62.5624L937.358 58.2845L934.364 57.8636L932.777 69.1527L935.772 69.5735L936.39 65.1767L941.832 65.9416L941.214 70.3384L944.209 70.7593L945.796 59.4702L942.801 59.0494ZM957.655 61.137L951.207 67.5258L952.213 60.3721L949.218 59.9512L947.631 71.2403L950.626 71.6611L957.074 65.2723L956.068 72.426L959.063 72.8469L960.65 61.5578L957.655 61.137ZM962.485 73.3279L972.705 74.7641L972.284 77.7587L975.112 78.1562L975.901 72.5473L973.999 72.2801L975.218 63.6053L972.224 63.1845L971.005 71.8592L965.847 71.1344L967.067 62.4597L964.072 62.0388L962.485 73.3279ZM984.536 64.5998C981.993 64.2424 979.344 65.1546 978.315 67.8214L981.405 68.2556C981.946 67.3379 982.974 67.0946 984.233 67.2717C985.659 67.4721 986.798 68.1653 986.614 69.4724L983.834 69.0816C981.195 68.7109 978.406 69.0702 978.006 71.9222C977.661 74.3701 979.131 75.9824 981.912 76.3732C983.362 76.5769 984.787 76.4379 985.736 75.723L985.616 76.5786L988.61 76.9994L989.595 69.9883C990.006 67.0651 987.935 65.0774 984.536 64.5998ZM986.233 72.1818C986.02 73.7028 984.46 74.2834 982.844 74.0563C981.513 73.8692 980.887 73.1511 980.997 72.3668C981.127 71.4399 982.07 71.1119 983.52 71.3157L986.3 71.7065L986.233 72.1818Z" fill="black"/>
<path d="M1029.41 66.6404L1028.75 71.3461C1028.22 75.0774 1030.09 77.1334 1034.72 77.7848C1035.63 77.9117 1037.38 78.0129 1038.41 77.9631L1037.57 83.8809L1040.69 84.3185L1042.91 68.5376L1039.79 68.1L1038.8 75.1586C1037.43 75.233 1035.95 75.121 1035 74.9874C1032.52 74.64 1031.58 73.7325 1031.87 71.7124L1032.52 67.0779L1029.41 66.6404ZM1052.51 82.4904C1051.87 83.1028 1051 83.2711 1050.05 83.1375C1048.55 82.9271 1047.48 81.9045 1047.36 80.5064L1056.06 81.7289C1056.19 81.3586 1056.2 81.0701 1056.26 80.6898C1056.72 77.3625 1054.71 74.4617 1051.21 73.9707C1047.7 73.4764 1044.86 75.6958 1044.39 79.0706C1043.91 82.493 1046.14 85.4001 1049.66 85.8944C1052.11 86.2384 1054.55 85.1027 1055.75 82.9447L1052.51 82.4904ZM1047.75 78.2823C1048.12 77.0019 1049.5 76.3471 1050.85 76.5375C1052.26 76.7346 1053.24 77.6963 1053.24 79.0539L1047.75 78.2823ZM1071.1 82.8245C1071.53 79.7349 1069.8 76.5823 1066.16 76.0712C1064.9 75.8942 1063.56 76.1179 1062.69 76.7715L1062.81 75.9159L1059.82 75.4951L1057.55 91.6325L1060.55 92.0533L1061.35 86.3256C1062 87.193 1063.23 87.8012 1064.49 87.9782C1068.12 88.4893 1070.67 85.9141 1071.1 82.8245ZM1068.11 82.4036C1067.87 84.1148 1066.42 85.4384 1064.64 85.1879C1063.04 84.9641 1061.6 83.6708 1061.9 81.5319C1062.2 79.3929 1063.94 78.5709 1065.53 78.7947C1067.32 79.0452 1068.35 80.6687 1068.11 82.4036ZM1083.11 78.7684L1082.51 83.0464L1077.07 82.2815L1077.67 78.0035L1074.67 77.5827L1073.09 88.8717L1076.08 89.2926L1076.7 84.8958L1082.14 85.6607L1081.52 90.0575L1084.52 90.4783L1086.1 79.1893L1083.11 78.7684ZM1094.37 80.036C1091.83 79.6786 1089.18 80.5908 1088.15 83.2576L1091.24 83.6918C1091.78 82.7741 1092.81 82.5308 1094.07 82.7079C1095.49 82.9083 1096.63 83.6015 1096.45 84.9086L1093.67 84.5178C1091.03 84.1471 1088.24 84.5064 1087.84 87.3584C1087.5 89.8063 1088.97 91.4186 1091.75 91.8094C1093.2 92.0131 1094.62 91.8741 1095.57 91.1592L1095.45 92.0148L1098.44 92.4357L1099.43 85.4246C1099.84 82.5013 1097.77 80.5136 1094.37 80.036ZM1096.07 87.618C1095.85 89.1391 1094.29 89.7196 1092.68 89.4925C1091.35 89.3054 1090.72 88.5873 1090.83 87.803C1090.96 86.8761 1091.9 86.5481 1093.35 86.7519L1096.13 87.1427L1096.07 87.618ZM1111.69 94.2966L1113.27 83.0076L1107.07 82.1358C1103.96 81.6982 1102.29 83.3549 1101.99 85.5177C1101.76 87.1338 1102.32 88.6667 1103.92 89.5455L1100.33 92.7L1104.2 93.2445L1107.46 90.3826L1109.15 90.6198L1108.69 93.8758L1111.69 94.2966ZM1109.52 88.0054L1106.4 87.5679C1105.38 87.4243 1104.86 86.8179 1104.98 85.9385C1105.11 85.0116 1105.78 84.6198 1106.8 84.7634L1109.91 85.201L1109.52 88.0054ZM1121.69 84.1912L1120.11 95.4803L1123.1 95.9011L1124.32 87.2264L1129.6 87.9679L1128.38 96.6426L1131.37 97.0635L1132.96 85.7744L1121.69 84.1912ZM1144.83 98.9546L1146.42 87.6655L1140.21 86.7937C1137.1 86.3562 1135.44 88.0129 1135.13 90.1756C1134.91 91.7917 1135.47 93.3246 1137.06 94.2035L1133.47 97.358L1137.34 97.9024L1140.6 95.0406L1142.29 95.2777L1141.83 98.5337L1144.83 98.9546ZM1142.66 92.6634L1139.55 92.2258C1138.52 92.0822 1138 91.4758 1138.13 90.5965C1138.26 89.6696 1138.92 89.2778 1139.94 89.4214L1143.05 89.859L1142.66 92.6634ZM1160 89.5741L1148.56 87.9675L1148.2 90.5818L1152.4 91.173L1151.18 99.8477L1154.18 100.269L1155.4 91.5939L1159.63 92.1884L1160 89.5741ZM1170.56 91.0591L1169.96 95.3371L1164.52 94.5722L1165.12 90.2942L1162.13 89.8734L1160.54 101.162L1163.53 101.583L1164.15 97.1865L1169.59 97.9514L1168.98 102.348L1171.97 102.769L1173.56 91.48L1170.56 91.0591ZM1185.42 93.1467L1178.97 99.5355L1179.97 92.3818L1176.98 91.961L1175.39 103.25L1178.39 103.671L1184.84 97.2821L1183.83 104.436L1186.82 104.857L1188.41 93.5676L1185.42 93.1467ZM1190.25 105.338L1200.47 106.774L1200.05 109.768L1202.87 110.166L1203.66 104.557L1201.76 104.29L1202.98 95.6151L1199.99 95.1942L1198.77 103.869L1193.61 103.144L1194.83 94.4694L1191.83 94.0486L1190.25 105.338ZM1212.3 96.6096C1209.75 96.2522 1207.11 97.1644 1206.08 99.8311L1209.17 100.265C1209.71 99.3477 1210.74 99.1044 1212 99.2814C1213.42 99.4818 1214.56 100.175 1214.38 101.482L1211.6 101.091C1208.96 100.721 1206.17 101.08 1205.77 103.932C1205.42 106.38 1206.89 107.992 1209.67 108.383C1211.12 108.587 1212.55 108.448 1213.5 107.733L1213.38 108.588L1216.37 109.009L1217.36 101.998C1217.77 99.0748 1215.7 97.0872 1212.3 96.6096ZM1214 104.192C1213.78 105.713 1212.22 106.293 1210.61 106.066C1209.27 105.879 1208.65 105.161 1208.76 104.377C1208.89 103.45 1209.83 103.122 1211.28 103.325L1214.06 103.716L1214 104.192Z" fill="black"/>
</svg>
