<svg width="1545" height="70" viewBox="0 0 1545 70" fill="none" xmlns="http://www.w3.org/2000/svg">
<rect x="144.159" y="98.3386" width="1406" height="38" transform="rotate(-7 144.159 98.3386)" fill="#FCC344"/>
<path d="M376.099 82.0147L376.678 86.7313C377.137 90.4712 379.474 91.9737 384.119 91.4033C385.024 91.2922 386.745 90.9358 387.723 90.6223L388.451 96.5538L391.571 96.1706L389.629 80.3534L386.509 80.7366L387.377 87.8114C386.076 88.2373 384.61 88.5139 383.658 88.6309C381.18 88.9351 380.038 88.3015 379.79 86.2767L379.219 81.6316L376.099 82.0147ZM402.52 91.3443C402.057 92.1024 401.259 92.4906 400.306 92.6076C398.805 92.7919 397.509 92.0806 397.032 90.7608L405.751 89.6903C405.776 89.3004 405.717 89.0175 405.67 88.6363C405.26 85.3014 402.562 83.0212 399.061 83.4511C395.535 83.884 393.374 86.7609 393.789 90.1435C394.21 93.5737 397.12 95.8038 400.645 95.3709C403.099 95.0696 405.159 93.3416 405.76 90.9465L402.52 91.3443ZM396.829 88.5128C396.859 87.1793 398.019 86.1905 399.376 86.0238C400.782 85.8512 401.977 86.5266 402.332 87.8372L396.829 88.5128ZM420.561 86.8563C420.18 83.7596 417.686 81.1643 414.041 81.6118C412.778 81.7668 411.542 82.3297 410.873 83.1856L410.768 82.328L407.766 82.6965L409.752 98.8711L412.754 98.5025L412.049 92.7617C412.905 93.4303 414.244 93.7012 415.506 93.5461C419.151 93.0986 420.941 89.9531 420.561 86.8563ZM417.559 87.2248C417.77 88.94 416.715 90.5928 414.929 90.8121C413.333 91.0081 411.605 90.1321 411.342 87.9882C411.079 85.8443 412.546 84.6002 414.142 84.4043C415.929 84.1849 417.346 85.4859 417.559 87.2248ZM431.111 79.8302L431.638 84.118L426.182 84.7878L425.656 80.5L422.655 80.8685L424.044 92.1835L427.045 91.815L426.504 87.4081L431.959 86.7383L432.5 91.1452L435.502 90.7767L434.112 79.4616L431.111 79.8302ZM442.317 78.14C439.768 78.4529 437.445 80.0196 437.141 82.8618L440.238 82.4816C440.523 81.4552 441.453 80.9542 442.716 80.7991C444.145 80.6237 445.424 80.9986 445.585 82.3087L442.798 82.6509C440.154 82.9756 437.553 84.0445 437.904 86.9031C438.205 89.3567 440.042 90.5335 442.829 90.1913C444.282 90.0129 445.623 89.5098 446.354 88.5737L446.46 89.4312L449.461 89.0627L448.598 82.0355C448.238 79.1055 445.723 77.7217 442.317 78.14ZM445.918 85.0243C446.106 86.5489 444.749 87.5134 443.129 87.7123C441.795 87.8761 441.005 87.3445 440.908 86.5584C440.794 85.6293 441.62 85.0685 443.073 84.8901L445.86 84.5479L445.918 85.0243ZM462.733 87.4331L461.344 76.1181L455.126 76.8815C452.006 77.2646 450.828 79.2952 451.095 81.463C451.293 83.0828 452.231 84.4185 454.001 84.854L451.346 88.8312L455.229 88.3544L457.639 84.7458L459.331 84.5382L459.731 87.8016L462.733 87.4331ZM459.009 81.9178L455.888 82.301C454.864 82.4268 454.204 81.9758 454.096 81.0944C453.982 80.1654 454.519 79.6159 455.543 79.4901L458.664 79.1069L459.009 81.9178ZM469.785 75.0816L471.174 86.3966L474.176 86.0281L473.108 77.3334L478.396 76.6841L479.464 85.3788L482.465 85.0102L481.076 73.6952L469.785 75.0816ZM495.952 83.3543L494.563 72.0393L488.346 72.8027C485.225 73.1858 484.048 75.2164 484.314 77.3841C484.513 79.004 485.45 80.3397 487.221 80.7752L484.566 84.7524L488.449 84.2756L490.859 80.667L492.55 80.4593L492.951 83.7228L495.952 83.3543ZM492.228 77.839L489.108 78.2222C488.083 78.3479 487.424 77.897 487.315 77.0156C487.201 76.0866 487.738 75.537 488.763 75.4113L491.883 75.0281L492.228 77.839ZM508.174 70.368L496.716 71.7748L497.038 74.3952L501.254 73.8775L502.322 82.5722L505.324 82.2036L504.256 73.5089L508.496 72.9883L508.174 70.368ZM518.765 69.0676L519.292 73.3554L513.837 74.0252L513.31 69.7374L510.309 70.1059L511.698 81.4209L514.7 81.0524L514.158 76.6455L519.613 75.9757L520.155 80.3826L523.156 80.0141L521.767 68.6991L518.765 69.0676ZM533.653 67.2395L529.079 75.0795L528.198 67.9093L525.197 68.2779L526.586 79.5929L529.588 79.2244L534.162 71.3844L535.043 78.5546L538.044 78.186L536.655 66.871L533.653 67.2395ZM541.474 77.7649L551.718 76.5072L552.086 79.5086L554.921 79.1606L554.231 73.5388L552.325 73.7728L551.257 65.0781L548.256 65.4466L549.323 74.1413L544.154 74.776L543.087 66.0813L540.085 66.4498L541.474 77.7649ZM560.515 63.627C557.966 63.94 555.644 65.5067 555.34 68.3489L558.436 67.9687C558.722 66.9423 559.651 66.4412 560.914 66.2862C562.343 66.1107 563.622 66.4856 563.783 67.7958L560.996 68.138C558.352 68.4627 555.751 69.5316 556.102 72.3902C556.403 74.8437 558.24 76.0206 561.027 75.6784C562.48 75.5 563.821 74.9969 564.553 74.0607L564.658 74.9183L567.659 74.5498L566.796 67.5225C566.437 64.5925 563.921 63.2088 560.515 63.627ZM564.117 70.5114C564.304 72.0359 562.947 73.0005 561.328 73.1994C559.994 73.3631 559.203 72.8315 559.106 72.0454C558.992 71.1164 559.818 70.5556 561.271 70.3772L564.058 70.035L564.117 70.5114Z" fill="black"/>
<path d="M604.384 53.9847L604.964 58.7013C605.423 62.4412 607.759 63.9437 612.404 63.3733C613.31 63.2622 615.031 62.9057 616.008 62.5923L616.736 68.5238L619.857 68.1406L617.915 52.3234L614.794 52.7066L615.663 59.7814C614.361 60.2072 612.896 60.4839 611.943 60.6009C609.466 60.9051 608.324 60.2715 608.075 58.2467L607.505 53.6016L604.384 53.9847ZM630.806 63.3143C630.343 64.0724 629.544 64.4606 628.591 64.5776C627.091 64.7619 625.794 64.0505 625.318 62.7308L634.036 61.6603C634.061 61.2704 634.002 60.9874 633.955 60.6063C633.546 57.2713 630.848 54.9911 627.346 55.4211C623.821 55.854 621.659 58.7308 622.074 62.1134C622.496 65.5437 625.405 67.7737 628.931 67.3408C631.384 67.0396 633.445 65.3116 634.046 62.9165L630.806 63.3143ZM625.114 60.4828C625.144 59.1492 626.304 58.1605 627.662 57.9938C629.068 57.8212 630.263 58.4966 630.617 59.8072L625.114 60.4828ZM648.846 58.8263C648.466 55.7295 645.971 53.1342 642.327 53.5817C641.064 53.7368 639.827 54.2997 639.159 55.1555L639.053 54.298L636.052 54.6665L638.038 70.841L641.039 70.4725L640.334 64.7316C641.19 65.4003 642.529 65.6711 643.792 65.5161C647.436 65.0686 649.226 61.923 648.846 58.8263ZM645.845 59.1948C646.055 60.9099 645.001 62.5628 643.214 62.7821C641.618 62.9781 639.891 62.1021 639.627 59.9582C639.364 57.8143 640.832 56.5702 642.428 56.3742C644.214 56.1549 645.631 57.4559 645.845 59.1948ZM659.397 51.8001L659.923 56.0879L654.468 56.7577L653.942 52.4699L650.94 52.8385L652.329 64.1535L655.331 63.785L654.79 59.3781L660.245 58.7083L660.786 63.1152L663.787 62.7466L662.398 51.4316L659.397 51.8001ZM670.602 50.1099C668.053 50.4229 665.731 51.9896 665.427 54.8318L668.524 54.4516C668.809 53.4252 669.739 52.9241 671.001 52.7691C672.43 52.5936 673.71 52.9685 673.871 54.2787L671.083 54.6209C668.439 54.9456 665.838 56.0145 666.189 58.8731C666.49 61.3266 668.328 62.5035 671.115 62.1613C672.568 61.9829 673.908 61.4797 674.64 60.5436L674.745 61.4012L677.747 61.0327L676.884 54.0054C676.524 51.0754 674.009 49.6917 670.602 50.1099ZM674.204 56.9943C674.391 58.5188 673.035 59.4834 671.415 59.6822C670.081 59.846 669.29 59.3144 669.194 58.5283C669.08 57.5993 669.905 57.0385 671.358 56.8601L674.146 56.5179L674.204 56.9943ZM691.018 59.4031L689.629 48.0881L683.412 48.8514C680.291 49.2346 679.114 51.2652 679.38 53.4329C679.579 55.0528 680.517 56.3884 682.287 56.8239L679.632 60.8012L683.515 60.3244L685.925 56.7158L687.616 56.5081L688.017 59.7716L691.018 59.4031ZM687.295 53.8878L684.174 54.271C683.15 54.3967 682.49 53.9458 682.382 53.0644C682.268 52.1354 682.805 51.5858 683.829 51.4601L686.949 51.0769L687.295 53.8878ZM698.071 47.0516L699.46 58.3666L702.461 57.9981L701.394 49.3034L706.682 48.654L707.75 57.3488L710.751 56.9802L709.362 45.6652L698.071 47.0516ZM724.238 55.3243L722.848 44.0092L716.631 44.7726C713.511 45.1558 712.333 47.1864 712.599 49.3541C712.798 50.974 713.736 52.3096 715.506 52.7451L712.851 56.7224L716.734 56.2456L719.144 52.637L720.836 52.4293L721.236 55.6928L724.238 55.3243ZM720.514 49.809L717.393 50.1921C716.369 50.3179 715.709 49.867 715.601 48.9856C715.487 48.0566 716.024 47.507 717.048 47.3813L720.169 46.9981L720.514 49.809ZM736.46 42.338L725.002 43.7448L725.324 46.3651L729.54 45.8474L730.608 54.5421L733.609 54.1736L732.542 45.4789L736.782 44.9583L736.46 42.338ZM747.051 41.0376L747.577 45.3254L742.122 45.9951L741.596 41.7073L738.594 42.0759L739.984 53.3909L742.985 53.0224L742.444 48.6155L747.899 47.9457L748.44 52.3526L751.442 51.984L750.052 40.669L747.051 41.0376ZM761.939 39.2095L757.364 47.0495L756.484 39.8793L753.483 40.2478L754.872 51.5629L757.873 51.1943L762.448 43.3544L763.328 50.5245L766.33 50.156L764.941 38.841L761.939 39.2095ZM769.76 49.7348L780.003 48.4771L780.372 51.4786L783.206 51.1305L782.516 45.5088L780.61 45.7427L779.543 37.048L776.541 37.4166L777.609 46.1113L772.44 46.746L771.372 38.0513L768.371 38.4198L769.76 49.7348ZM788.8 35.597C786.252 35.91 783.929 37.4767 783.625 40.3189L786.722 39.9387C787.007 38.9123 787.937 38.4112 789.2 38.2562C790.629 38.0807 791.908 38.4556 792.069 39.7658L789.282 40.108C786.638 40.4326 784.037 41.5016 784.388 44.3601C784.689 46.8137 786.526 47.9906 789.313 47.6484C790.766 47.47 792.107 46.9668 792.838 46.0307L792.943 46.8883L795.945 46.5197L795.082 39.4925C794.722 36.5625 792.207 35.1787 788.8 35.597ZM792.402 42.4814C792.589 44.0059 791.233 44.9704 789.613 45.1693C788.279 45.3331 787.488 44.8015 787.392 44.0154C787.278 43.0864 788.104 42.5256 789.557 42.3472L792.344 42.0049L792.402 42.4814Z" fill="black"/>
<path d="M832.67 25.9547L833.249 30.6713C833.708 34.4112 836.045 35.9136 840.69 35.3433C841.595 35.2321 843.317 34.8757 844.294 34.5623L845.022 40.4937L848.143 40.1106L846.201 24.2934L843.08 24.6765L843.949 31.7514C842.647 32.1772 841.182 32.4538 840.229 32.5708C837.751 32.875 836.61 32.2414 836.361 30.2166L835.791 25.5715L832.67 25.9547ZM859.092 35.2843C858.628 36.0424 857.83 36.4306 856.877 36.5476C855.376 36.7318 854.08 36.0205 853.604 34.7007L862.322 33.6302C862.347 33.2403 862.288 32.9574 862.241 32.5763C861.832 29.2413 859.134 26.9611 855.632 27.3911C852.106 27.8239 849.945 30.7008 850.36 34.0834C850.781 37.5136 853.691 39.7437 857.216 39.3108C859.67 39.0096 861.731 37.2815 862.331 34.8865L859.092 35.2843ZM853.4 32.4528C853.43 31.1192 854.59 30.1305 855.948 29.9637C857.353 29.7912 858.548 30.4666 858.903 31.7771L853.4 32.4528ZM877.132 30.7963C876.752 27.6995 874.257 25.1042 870.612 25.5517C869.35 25.7067 868.113 26.2696 867.444 27.1255L867.339 26.2679L864.338 26.6365L866.324 42.811L869.325 42.4425L868.62 36.7016C869.476 37.3703 870.815 37.6411 872.078 37.4861C875.722 37.0386 877.512 33.893 877.132 30.7963ZM874.13 31.1648C874.341 32.8799 873.287 34.5327 871.5 34.7521C869.904 34.9481 868.176 34.0721 867.913 31.9282C867.65 29.7843 869.117 28.5402 870.713 28.3442C872.5 28.1248 873.917 29.4258 874.13 31.1648ZM887.682 23.7701L888.209 28.0579L882.754 28.7277L882.227 24.4399L879.226 24.8084L880.615 36.1235L883.617 35.7549L883.075 31.348L888.53 30.6782L889.072 35.0851L892.073 34.7166L890.684 23.4016L887.682 23.7701ZM898.888 22.0799C896.339 22.3929 894.017 23.9596 893.713 26.8018L896.809 26.4216C897.094 25.3952 898.024 24.8941 899.287 24.7391C900.716 24.5636 901.995 24.9385 902.156 26.2487L899.369 26.5909C896.725 26.9155 894.124 27.9845 894.475 30.843C894.776 33.2966 896.613 34.4735 899.4 34.1313C900.853 33.9529 902.194 33.4497 902.925 32.5136L903.031 33.3712L906.032 33.0026L905.169 25.9754C904.81 23.0454 902.294 21.6616 898.888 22.0799ZM902.49 28.9643C902.677 30.4888 901.32 31.4533 899.7 31.6522C898.366 31.816 897.576 31.2844 897.479 30.4983C897.365 29.5693 898.191 29.0085 899.644 28.83L902.431 28.4878L902.49 28.9643ZM919.304 31.3731L917.915 20.058L911.697 20.8214C908.577 21.2046 907.4 23.2352 907.666 25.4029C907.865 27.0227 908.802 28.3584 910.573 28.7939L907.918 32.7711L911.8 32.2944L914.211 28.6858L915.902 28.4781L916.303 31.7416L919.304 31.3731ZM915.58 25.8578L912.46 26.2409C911.435 26.3667 910.775 25.9158 910.667 25.0344C910.553 24.1053 911.09 23.5558 912.114 23.43L915.235 23.0469L915.58 25.8578ZM926.356 19.0215L927.746 30.3366L930.747 29.968L929.679 21.2733L934.968 20.624L936.035 29.3187L939.037 28.9502L937.647 17.6352L926.356 19.0215ZM952.523 27.2942L951.134 15.9792L944.917 16.7426C941.796 17.1258 940.619 19.1564 940.885 21.3241C941.084 22.9439 942.022 24.2796 943.792 24.7151L941.137 28.6923L945.02 28.2156L947.43 24.6069L949.121 24.3993L949.522 27.6628L952.523 27.2942ZM948.799 21.779L945.679 22.1621C944.655 22.2879 943.995 21.8369 943.887 20.9556C943.772 20.0265 944.309 19.477 945.334 19.3512L948.454 18.9681L948.799 21.779ZM964.746 14.3079L953.288 15.7148L953.609 18.3351L957.826 17.8174L958.893 26.5121L961.895 26.1436L960.827 17.4489L965.067 16.9282L964.746 14.3079ZM975.337 13.0075L975.863 17.2953L970.408 17.9651L969.881 13.6773L966.88 14.0459L968.269 25.3609L971.271 24.9923L970.73 20.5854L976.185 19.9156L976.726 24.3226L979.727 23.954L978.338 12.639L975.337 13.0075ZM990.225 11.1795L985.65 19.0194L984.77 11.8493L981.768 12.2178L983.158 23.5328L986.159 23.1643L990.734 15.3244L991.614 22.4945L994.615 22.126L993.226 10.811L990.225 11.1795ZM998.046 21.7048L1008.29 20.4471L1008.66 23.4486L1011.49 23.1005L1010.8 17.4787L1008.9 17.7127L1007.83 9.01801L1004.83 9.38654L1005.89 18.0812L1000.73 18.7159L999.658 10.0212L996.656 10.3898L998.046 21.7048ZM1017.09 7.56697C1014.54 7.87994 1012.21 9.44664 1011.91 12.2889L1015.01 11.9086C1015.29 10.8822 1016.22 10.3812 1017.49 10.2262C1018.91 10.0507 1020.19 10.4256 1020.35 11.7357L1017.57 12.0779C1014.92 12.4026 1012.32 13.4716 1012.67 16.3301C1012.97 18.7837 1014.81 19.9606 1017.6 19.6183C1019.05 19.4399 1020.39 18.9368 1021.12 18.0007L1021.23 18.8582L1024.23 18.4897L1023.37 11.4625C1023.01 8.53249 1020.49 7.14872 1017.09 7.56697ZM1020.69 14.4513C1020.88 15.9759 1019.52 16.9404 1017.9 17.1393C1016.56 17.3031 1015.77 16.7715 1015.68 15.9854C1015.56 15.0564 1016.39 14.4955 1017.84 14.3171L1020.63 13.9749L1020.69 14.4513Z" fill="black"/>
<path d="M1060.96 -2.0751L1061.53 2.64148C1061.99 6.3814 1064.33 7.88384 1068.98 7.3135C1069.88 7.20235 1071.6 6.84591 1072.58 6.5325L1073.31 12.464L1076.43 12.0808L1074.49 -3.73642L1071.37 -3.35326L1072.23 3.72161C1070.93 4.14743 1069.47 4.42406 1068.51 4.54105C1066.04 4.84524 1064.9 4.21166 1064.65 2.18686L1064.08 -2.45826L1060.96 -2.0751ZM1087.38 7.25448C1086.91 8.01257 1086.12 8.40079 1085.16 8.51778C1083.66 8.70205 1082.37 7.99073 1081.89 6.67095L1090.61 5.60045C1090.63 5.21054 1090.57 4.92761 1090.53 4.54647C1090.12 1.21152 1087.42 -1.06867 1083.92 -0.638719C1080.39 -0.205839 1078.23 2.67103 1078.65 6.05362C1079.07 9.48386 1081.98 11.7139 1085.5 11.281C1087.96 10.9798 1090.02 9.25175 1090.62 6.8567L1087.38 7.25448ZM1081.69 4.42299C1081.72 3.08943 1082.88 2.10068 1084.23 1.93396C1085.64 1.76139 1086.83 2.43677 1087.19 3.74735L1081.69 4.42299ZM1105.42 2.76647C1105.04 -0.33028 1102.54 -2.92557 1098.9 -2.47807C1097.64 -2.32305 1096.4 -1.76015 1095.73 -0.90428L1095.62 -1.76184L1092.62 -1.39331L1094.61 14.7812L1097.61 14.4127L1096.91 8.67181C1097.76 9.34049 1099.1 9.61132 1100.36 9.45631C1104.01 9.0088 1105.8 5.86321 1105.42 2.76647ZM1102.42 3.135C1102.63 4.85012 1101.57 6.50294 1099.79 6.72231C1098.19 6.91827 1096.46 6.04229 1096.2 3.89839C1095.94 1.75449 1097.4 0.510393 1099 0.314427C1100.79 0.0950625 1102.2 1.39606 1102.42 3.135ZM1115.97 -4.25967L1116.49 0.0281258L1111.04 0.69792L1110.51 -3.58988L1107.51 -3.22135L1108.9 8.09368L1111.9 7.72515L1111.36 3.31824L1116.82 2.64845L1117.36 7.05535L1120.36 6.68682L1118.97 -4.62821L1115.97 -4.25967ZM1127.17 -5.94988C1124.62 -5.63692 1122.3 -4.07022 1122 -1.228L1125.1 -1.60823C1125.38 -2.63462 1126.31 -3.13568 1127.57 -3.29069C1129 -3.46619 1130.28 -3.09129 1130.44 -1.78113L1127.65 -1.43892C1125.01 -1.11426 1122.41 -0.0452957 1122.76 2.81324C1123.06 5.26681 1124.9 6.4437 1127.69 6.10149C1129.14 5.92307 1130.48 5.41993 1131.21 4.48382L1131.32 5.34138L1134.32 4.97285L1133.46 -2.05438C1133.1 -4.98437 1130.58 -6.36814 1127.17 -5.94988ZM1130.78 0.934478C1130.96 2.45903 1129.61 3.42354 1127.99 3.62243C1126.65 3.78622 1125.86 3.25462 1125.76 2.46853C1125.65 1.5395 1126.48 0.978681 1127.93 0.800264L1130.72 0.458055L1130.78 0.934478ZM1147.59 3.34327L1146.2 -7.97176L1139.98 -7.20837C1136.86 -6.82521 1135.69 -4.7946 1135.95 -2.62688C1136.15 -1.00704 1137.09 0.328627 1138.86 0.764131L1136.2 4.74135L1140.09 4.2646L1142.5 0.655972L1144.19 0.448307L1144.59 3.7118L1147.59 3.34327ZM1143.87 -2.17201L1140.75 -1.78886C1139.72 -1.66309 1139.06 -2.11403 1138.95 -2.99541C1138.84 -3.92444 1139.38 -4.47398 1140.4 -4.59975L1143.52 -4.98291L1143.87 -2.17201ZM1154.64 -9.00824L1156.03 2.30679L1159.03 1.93826L1157.97 -6.75645L1163.25 -7.40577L1164.32 1.28894L1167.32 0.920405L1165.93 -10.3946L1154.64 -9.00824ZM1180.81 -0.735548L1179.42 -12.0506L1173.2 -11.2872C1170.08 -10.904 1168.9 -8.87342 1169.17 -6.70569C1169.37 -5.08586 1170.31 -3.75019 1172.08 -3.31468L1169.42 0.662537L1173.31 0.185784L1175.72 -3.42284L1177.41 -3.63051L1177.81 -0.367016L1180.81 -0.735548ZM1177.09 -6.25083L1173.96 -5.86767C1172.94 -5.7419 1172.28 -6.19285 1172.17 -7.07423C1172.06 -8.00325 1172.6 -8.55279 1173.62 -8.67856L1176.74 -9.06172L1177.09 -6.25083ZM1193.03 -13.7219L1181.57 -12.315L1181.9 -9.69468L1186.11 -10.2124L1187.18 -1.51768L1190.18 -1.88621L1189.11 -10.5809L1193.35 -11.1015L1193.03 -13.7219ZM1203.62 -15.0223L1204.15 -10.7345L1198.69 -10.0647L1198.17 -14.3525L1195.17 -13.9839L1196.55 -2.66891L1199.56 -3.03744L1199.02 -7.44434L1204.47 -8.11414L1205.01 -3.70723L1208.01 -4.07577L1206.62 -15.3908L1203.62 -15.0223ZM1218.51 -16.8503L1213.94 -9.01035L1213.06 -16.1805L1210.05 -15.812L1211.44 -4.49695L1214.44 -4.86548L1219.02 -12.7054L1219.9 -5.53527L1222.9 -5.90381L1221.51 -17.2188L1218.51 -16.8503ZM1226.33 -6.32499L1236.57 -7.58268L1236.94 -4.58122L1239.78 -4.92928L1239.09 -10.5511L1237.18 -10.3171L1236.11 -19.0118L1233.11 -18.6432L1234.18 -9.94854L1229.01 -9.31384L1227.94 -18.0085L1224.94 -17.64L1226.33 -6.32499ZM1245.37 -20.4628C1242.82 -20.1498 1240.5 -18.5831 1240.2 -15.7409L1243.29 -16.1212C1243.58 -17.1475 1244.51 -17.6486 1245.77 -17.8036C1247.2 -17.9791 1248.48 -17.6042 1248.64 -16.2941L1245.85 -15.9518C1243.21 -15.6272 1240.61 -14.5582 1240.96 -11.6997C1241.26 -9.24611 1243.1 -8.06923 1245.88 -8.41144C1247.34 -8.58986 1248.68 -9.09299 1249.41 -10.0291L1249.51 -9.17154L1252.52 -9.54008L1251.65 -16.5673C1251.29 -19.4973 1248.78 -20.8811 1245.37 -20.4628ZM1248.97 -13.5784C1249.16 -12.0539 1247.8 -11.0894 1246.18 -10.8905C1244.85 -10.7267 1244.06 -11.2583 1243.96 -12.0444C1243.85 -12.9734 1244.67 -13.5342 1246.13 -13.7127L1248.92 -14.0549L1248.97 -13.5784Z" fill="black"/>
<rect x="-109.901" y="-105.661" width="1406" height="38" transform="rotate(8 -109.901 -105.661)" fill="#FCC344"/>
<path d="M346.122 -29.3889L345.46 -24.6832C344.936 -20.9519 346.804 -18.8959 351.438 -18.2445C352.341 -18.1176 354.096 -18.0164 355.121 -18.0662L354.29 -12.1484L357.403 -11.7108L359.621 -27.4917L356.507 -27.9293L355.515 -20.8707C354.148 -20.7963 352.661 -20.9083 351.71 -21.0419C349.239 -21.3893 348.3 -22.2968 348.584 -24.3169L349.235 -28.9514L346.122 -29.3889ZM369.228 -13.5389C368.585 -12.9265 367.713 -12.7582 366.762 -12.8918C365.265 -13.1022 364.197 -14.1248 364.078 -15.5229L372.777 -14.3004C372.901 -14.6707 372.918 -14.9592 372.971 -15.3395C373.439 -18.6668 371.423 -21.5676 367.929 -22.0586C364.412 -22.5529 361.579 -20.3335 361.105 -16.9587C360.624 -13.5363 362.857 -10.6292 366.375 -10.1349C368.822 -9.79086 371.26 -10.9266 372.46 -13.0846L369.228 -13.5389ZM364.463 -17.747C364.837 -19.0274 366.214 -19.6822 367.568 -19.4918C368.971 -19.2947 369.95 -18.333 369.953 -16.9754L364.463 -17.747ZM387.815 -13.2048C388.249 -16.2944 386.511 -19.447 382.875 -19.9581C381.615 -20.1351 380.275 -19.9114 379.408 -19.2578L379.528 -20.1134L376.534 -20.5342L374.266 -4.39683L377.26 -3.97597L378.065 -9.70368C378.719 -8.83627 379.942 -8.22811 381.202 -8.05108C384.838 -7.54004 387.381 -10.1152 387.815 -13.2048ZM384.821 -13.6257C384.58 -11.9145 383.134 -10.5909 381.351 -10.8414C379.759 -11.0652 378.317 -12.3585 378.618 -14.4974C378.918 -16.6364 380.658 -17.4584 382.25 -17.2346C384.032 -16.984 385.064 -15.3606 384.821 -13.6257ZM399.825 -17.2609L399.223 -12.9829L393.781 -13.7478L394.382 -18.0258L391.388 -18.4466L389.801 -7.15759L392.796 -6.73673L393.413 -11.1335L398.856 -10.3686L398.238 -5.97183L401.233 -5.55097L402.819 -16.84L399.825 -17.2609ZM411.086 -15.9933C408.543 -16.3507 405.894 -15.4385 404.865 -12.7717L407.955 -12.3375C408.496 -13.2552 409.523 -13.4985 410.783 -13.3214C412.209 -13.121 413.348 -12.4278 413.164 -11.1207L410.383 -11.5115C407.745 -11.8822 404.956 -11.5229 404.555 -8.67093C404.211 -6.22299 405.681 -4.61072 408.462 -4.21992C409.911 -4.01617 411.337 -4.15518 412.285 -4.8701L412.165 -4.0145L415.16 -3.59364L416.145 -10.6047C416.556 -13.528 414.484 -15.5157 411.086 -15.9933ZM412.783 -8.41129C412.569 -6.89024 411.009 -6.3097 409.393 -6.53683C408.062 -6.72388 407.436 -7.44201 407.546 -8.2263C407.677 -9.15319 408.619 -9.48117 410.069 -9.27742L412.85 -8.88662L412.783 -8.41129ZM428.401 -1.73268L429.988 -13.0217L423.785 -13.8935C420.671 -14.3311 419.009 -12.6744 418.705 -10.5116C418.477 -8.8955 419.038 -7.36263 420.635 -6.48379L417.041 -3.32928L420.915 -2.78483L424.177 -5.64669L425.864 -5.40954L425.407 -2.15354L428.401 -1.73268ZM426.232 -8.02385L423.118 -8.46141C422.096 -8.60504 421.576 -9.2114 421.699 -10.0908C421.829 -11.0177 422.49 -11.4095 423.512 -11.2659L426.626 -10.8283L426.232 -8.02385ZM438.41 -11.8381L436.823 -0.549041L439.818 -0.128182L441.037 -8.80293L446.313 -8.06142L445.094 0.613333L448.089 1.03419L449.675 -10.2549L438.41 -11.8381ZM461.544 2.92527L463.131 -8.36379L456.928 -9.23557C453.814 -9.67313 452.152 -8.01642 451.848 -5.85367C451.621 -4.23755 452.181 -2.70468 453.778 -1.82584L450.184 1.32867L454.058 1.87312L457.32 -0.988745L459.007 -0.751594L458.55 2.50441L461.544 2.92527ZM459.375 -3.3659L456.261 -3.80346C455.239 -3.94709 454.719 -4.55345 454.842 -5.43281C454.972 -6.3597 455.633 -6.75153 456.655 -6.6079L459.769 -6.17034L459.375 -3.3659ZM476.711 -6.4552L465.279 -8.06182L464.912 -5.44751L469.119 -4.8563L467.899 3.81845L470.894 4.23931L472.113 -4.43544L476.344 -3.8409L476.711 -6.4552ZM487.278 -4.97017L486.676 -0.692208L481.234 -1.4571L481.835 -5.73506L478.841 -6.15592L477.254 5.13314L480.249 5.554L480.867 1.1572L486.309 1.9221L485.691 6.31889L488.686 6.73975L490.272 -4.54931L487.278 -4.97017ZM502.132 -2.88257L495.684 3.50623L496.689 -3.64747L493.695 -4.06832L492.108 7.22073L495.103 7.64159L501.55 1.25279L500.545 8.40649L503.54 8.82735L505.126 -2.46171L502.132 -2.88257ZM506.962 9.30833L517.182 10.7446L516.761 13.7392L519.589 14.1366L520.377 8.52777L518.476 8.26055L519.695 -0.414196L516.701 -0.835055L515.481 7.83969L510.324 7.11488L511.543 -1.55987L508.549 -1.98073L506.962 9.30833ZM529.013 0.580257C526.47 0.222861 523.821 1.13511 522.792 3.80183L525.882 4.23605C526.423 3.31841 527.45 3.07509 528.71 3.25212C530.136 3.45253 531.275 4.14574 531.091 5.45289L528.31 5.06209C525.672 4.69134 522.883 5.05066 522.482 7.90263C522.138 10.3506 523.608 11.9628 526.389 12.3536C527.838 12.5574 529.264 12.4184 530.212 11.7035L530.092 12.5591L533.087 12.9799L534.072 5.96882C534.483 3.04555 532.411 1.0579 529.013 0.580257ZM530.71 8.16227C530.496 9.68332 528.936 10.2639 527.32 10.0367C525.989 9.84968 525.363 9.13155 525.473 8.34726C525.604 7.42037 526.546 7.09239 527.996 7.29614L530.777 7.68694L530.71 8.16227Z" fill="black"/>
<path d="M573.883 2.62082L573.222 7.32658C572.697 11.0579 574.566 13.1139 579.2 13.7652C580.103 13.8922 581.858 13.9934 582.883 13.9435L582.051 19.8614L585.165 20.2989L587.383 4.51803L584.269 4.08047L583.277 11.1391C581.909 11.2135 580.423 11.1015 579.472 10.9679C577 10.6205 576.061 9.71299 576.345 7.69284L576.997 3.05838L573.883 2.62082ZM596.99 18.4709C596.346 19.0833 595.474 19.2516 594.524 19.118C593.026 18.9075 591.958 17.8849 591.84 16.4868L600.538 17.7093C600.663 17.3391 600.679 17.0505 600.733 16.6703C601.2 13.343 599.184 10.4422 595.691 9.95119C592.173 9.45684 589.341 11.6762 588.867 15.0511C588.386 18.4734 590.619 21.3805 594.136 21.8749C596.584 22.2189 599.022 21.0831 600.222 18.9251L596.99 18.4709ZM592.225 14.2628C592.599 12.9824 593.975 12.3276 595.33 12.518C596.732 12.715 597.712 13.6767 597.715 15.0344L592.225 14.2628ZM615.577 18.805C616.011 15.7153 614.273 12.5627 610.637 12.0517C609.377 11.8747 608.037 12.0983 607.169 12.752L607.29 11.8964L604.295 11.4755L602.027 27.6129L605.022 28.0338L605.827 22.3061C606.48 23.1735 607.704 23.7817 608.963 23.9587C612.6 24.4697 615.143 21.8946 615.577 18.805ZM612.582 18.3841C612.342 20.0953 610.896 21.4189 609.113 21.1684C607.521 20.9446 606.079 19.6513 606.379 17.5123C606.68 15.3733 608.419 14.5514 610.012 14.7752C611.794 15.0257 612.826 16.6492 612.582 18.3841ZM627.586 14.7489L626.985 19.0268L621.543 18.2619L622.144 13.984L619.149 13.5631L617.563 24.8522L620.557 25.273L621.175 20.8762L626.618 21.6411L626 26.0379L628.994 26.4588L630.581 15.1697L627.586 14.7489ZM638.847 16.0165C636.304 15.6591 633.656 16.5713 632.627 19.238L635.716 19.6723C636.257 18.7546 637.285 18.5113 638.545 18.6883C639.971 18.8887 641.109 19.5819 640.926 20.8891L638.145 20.4983C635.507 20.1275 632.718 20.4869 632.317 23.3388C631.973 25.7868 633.443 27.399 636.223 27.7898C637.673 27.9936 639.098 27.8546 640.047 27.1397L639.927 27.9953L642.921 28.4161L643.907 21.405C644.318 18.4818 642.246 16.4941 638.847 16.0165ZM640.545 23.5985C640.331 25.1195 638.771 25.7001 637.155 25.4729C635.824 25.2859 635.198 24.5678 635.308 23.7835C635.438 22.8566 636.381 22.5286 637.831 22.7323L640.612 23.1231L640.545 23.5985ZM656.163 30.2771L657.749 18.988L651.546 18.1162C648.433 17.6787 646.77 19.3354 646.466 21.4981C646.239 23.1143 646.799 24.6471 648.396 25.526L644.802 28.6805L648.676 29.2249L651.938 26.3631L653.626 26.6002L653.168 29.8562L656.163 30.2771ZM653.993 23.9859L650.88 23.5484C649.858 23.4047 649.337 22.7984 649.461 21.919C649.591 20.9921 650.252 20.6003 651.274 20.7439L654.387 21.1815L653.993 23.9859ZM666.171 20.1717L664.585 31.4607L667.579 31.8816L668.799 23.2068L674.075 23.9483L672.856 32.6231L675.85 33.044L677.437 21.7549L666.171 20.1717ZM689.306 34.935L690.892 23.646L684.689 22.7742C681.576 22.3366 679.913 23.9933 679.609 26.1561C679.382 27.7722 679.942 29.3051 681.54 30.1839L677.946 33.3384L681.819 33.8829L685.081 31.021L686.769 31.2582L686.311 34.5142L689.306 34.935ZM687.136 28.6439L684.023 28.2063C683.001 28.0627 682.48 27.4563 682.604 26.577C682.734 25.6501 683.395 25.2582 684.417 25.4019L687.53 25.8394L687.136 28.6439ZM704.473 25.5546L693.041 23.9479L692.674 26.5623L696.88 27.1535L695.661 35.8282L698.656 36.2491L699.875 27.5743L704.105 28.1689L704.473 25.5546ZM715.039 27.0396L714.438 31.3176L708.996 30.5527L709.597 26.2747L706.602 25.8538L705.016 37.1429L708.01 37.5638L708.628 33.167L714.071 33.9319L713.453 38.3287L716.447 38.7495L718.034 27.4605L715.039 27.0396ZM729.893 29.1272L723.445 35.516L724.451 28.3623L721.456 27.9414L719.87 39.2305L722.864 39.6514L729.312 33.2626L728.307 40.4163L731.301 40.8371L732.888 29.5481L729.893 29.1272ZM734.724 41.3181L744.943 42.7544L744.522 45.7489L747.351 46.1464L748.139 40.5375L746.238 40.2703L747.457 31.5956L744.462 31.1747L743.243 39.8495L738.086 39.1246L739.305 30.4499L736.31 30.029L734.724 41.3181ZM756.774 32.59C754.231 32.2326 751.583 33.1449 750.554 35.8116L753.643 36.2458C754.184 35.3282 755.212 35.0849 756.472 35.2619C757.898 35.4623 759.036 36.1555 758.853 37.4627L756.072 37.0719C753.434 36.7011 750.645 37.0604 750.244 39.9124C749.9 42.3603 751.37 43.9726 754.15 44.3634C755.6 44.5672 757.025 44.4281 757.974 43.7132L757.854 44.5688L760.848 44.9897L761.834 37.9786C762.245 35.0553 760.173 33.0677 756.774 32.59ZM758.472 40.172C758.258 41.6931 756.698 42.2736 755.082 42.0465C753.751 41.8594 753.125 41.1413 753.235 40.357C753.365 39.4301 754.308 39.1022 755.758 39.3059L758.539 39.6967L758.472 40.172Z" fill="black"/>
<path d="M801.645 34.6306L800.984 39.3363C800.459 43.0677 802.327 45.1237 806.962 45.775C807.865 45.9019 809.62 46.0032 810.645 45.9533L809.813 51.8712L812.926 52.3087L815.144 36.5278L812.031 36.0902L811.039 43.1489C809.671 43.2233 808.184 43.1112 807.234 42.9776C804.762 42.6302 803.823 41.7228 804.107 39.7026L804.758 35.0682L801.645 34.6306ZM824.751 50.4806C824.108 51.093 823.236 51.2613 822.285 51.1277C820.788 50.9173 819.72 49.8947 819.601 48.4966L828.3 49.7191C828.425 49.3488 828.441 49.0603 828.494 48.68C828.962 45.3527 826.946 42.452 823.452 41.961C819.935 41.4666 817.103 43.686 816.628 47.0608C816.147 50.4832 818.38 53.3903 821.898 53.8846C824.346 54.2287 826.784 53.0929 827.984 50.9349L824.751 50.4806ZM819.987 46.2726C820.36 44.9921 821.737 44.3373 823.092 44.5277C824.494 44.7248 825.474 45.6865 825.477 47.0441L819.987 46.2726ZM843.339 50.8147C843.773 47.7251 842.035 44.5725 838.398 44.0615C837.139 43.8844 835.799 44.1081 834.931 44.7617L835.051 43.9061L832.057 43.4853L829.789 59.6227L832.783 60.0436L833.588 54.3158C834.242 55.1833 835.465 55.7914 836.725 55.9685C840.361 56.4795 842.904 53.9044 843.339 50.8147ZM840.344 50.3939C840.104 52.1051 838.657 53.4287 836.875 53.1781C835.282 52.9544 833.84 51.6611 834.141 49.5221C834.442 47.3831 836.181 46.5612 837.773 46.785C839.556 47.0355 840.588 48.6589 840.344 50.3939ZM855.348 46.7586L854.747 51.0366L849.304 50.2717L849.905 45.9937L846.911 45.5729L845.324 56.8619L848.319 57.2828L848.937 52.886L854.379 53.6509L853.761 58.0477L856.756 58.4686L858.343 47.1795L855.348 46.7586ZM866.609 48.0262C864.066 47.6688 861.417 48.5811 860.388 51.2478L863.478 51.682C864.019 50.7644 865.047 50.5211 866.306 50.6981C867.732 50.8985 868.871 51.5917 868.687 52.8989L865.907 52.5081C863.268 52.1373 860.479 52.4966 860.079 55.3486C859.734 57.7965 861.204 59.4088 863.985 59.7996C865.435 60.0034 866.86 59.8644 867.809 59.1494L867.689 60.005L870.683 60.4259L871.668 53.4148C872.079 50.4915 870.008 48.5039 866.609 48.0262ZM868.306 55.6082C868.093 57.1293 866.533 57.7098 864.917 57.4827C863.586 57.2957 862.96 56.5775 863.07 55.7932C863.2 54.8663 864.143 54.5384 865.593 54.7421L868.373 55.1329L868.306 55.6082ZM883.925 62.2868L885.511 50.9978L879.308 50.126C876.195 49.6885 874.532 51.3452 874.228 53.5079C874.001 55.124 874.561 56.6569 876.158 57.5357L872.564 60.6903L876.438 61.2347L879.7 58.3728L881.388 58.61L880.93 61.866L883.925 62.2868ZM881.755 55.9957L878.642 55.5581C877.62 55.4145 877.099 54.8081 877.223 53.9288C877.353 53.0019 878.014 52.6101 879.036 52.7537L882.149 53.1912L881.755 55.9957ZM893.933 52.1814L892.347 63.4705L895.341 63.8913L896.56 55.2166L901.836 55.9581L900.617 64.6329L903.612 65.0537L905.198 53.7647L893.933 52.1814ZM917.068 66.9448L918.654 55.6557L912.451 54.784C909.338 54.3464 907.675 56.0031 907.371 58.1659C907.144 59.782 907.704 61.3148 909.301 62.1937L905.707 65.3482L909.581 65.8927L912.843 63.0308L914.531 63.2679L914.073 66.5239L917.068 66.9448ZM914.898 60.6536L911.785 60.2161C910.763 60.0724 910.242 59.4661 910.366 58.5867C910.496 57.6598 911.157 57.268 912.179 57.4116L915.292 57.8492L914.898 60.6536ZM932.234 57.5643L920.803 55.9577L920.435 58.572L924.642 59.1632L923.423 67.838L926.417 68.2588L927.637 59.5841L931.867 60.1786L932.234 57.5643ZM942.801 59.0494L942.2 63.3273L936.757 62.5624L937.358 58.2845L934.364 57.8636L932.777 69.1527L935.772 69.5735L936.39 65.1767L941.832 65.9416L941.214 70.3384L944.209 70.7593L945.796 59.4702L942.801 59.0494ZM957.655 61.137L951.207 67.5258L952.213 60.3721L949.218 59.9512L947.631 71.2403L950.626 71.6611L957.074 65.2723L956.068 72.426L959.063 72.8469L960.65 61.5578L957.655 61.137ZM962.485 73.3279L972.705 74.7641L972.284 77.7587L975.112 78.1562L975.901 72.5473L973.999 72.2801L975.218 63.6053L972.224 63.1845L971.005 71.8592L965.847 71.1344L967.067 62.4597L964.072 62.0388L962.485 73.3279ZM984.536 64.5998C981.993 64.2424 979.344 65.1546 978.315 67.8214L981.405 68.2556C981.946 67.3379 982.974 67.0946 984.233 67.2717C985.659 67.4721 986.798 68.1653 986.614 69.4724L983.834 69.0816C981.195 68.7109 978.406 69.0702 978.006 71.9222C977.661 74.3701 979.131 75.9824 981.912 76.3732C983.362 76.5769 984.787 76.4379 985.736 75.723L985.616 76.5786L988.61 76.9994L989.595 69.9883C990.006 67.0651 987.935 65.0774 984.536 64.5998ZM986.233 72.1818C986.02 73.7028 984.46 74.2834 982.844 74.0563C981.513 73.8692 980.887 73.1511 980.997 72.3668C981.127 71.4399 982.07 71.1119 983.52 71.3157L986.3 71.7065L986.233 72.1818Z" fill="black"/>
<path d="M1029.41 66.6404L1028.75 71.3461C1028.22 75.0774 1030.09 77.1334 1034.72 77.7848C1035.63 77.9117 1037.38 78.0129 1038.41 77.9631L1037.57 83.8809L1040.69 84.3185L1042.91 68.5376L1039.79 68.1L1038.8 75.1586C1037.43 75.233 1035.95 75.121 1035 74.9874C1032.52 74.64 1031.58 73.7325 1031.87 71.7124L1032.52 67.0779L1029.41 66.6404ZM1052.51 82.4904C1051.87 83.1028 1051 83.2711 1050.05 83.1375C1048.55 82.9271 1047.48 81.9045 1047.36 80.5064L1056.06 81.7289C1056.19 81.3586 1056.2 81.0701 1056.26 80.6898C1056.72 77.3625 1054.71 74.4617 1051.21 73.9707C1047.7 73.4764 1044.86 75.6958 1044.39 79.0706C1043.91 82.493 1046.14 85.4001 1049.66 85.8944C1052.11 86.2384 1054.55 85.1027 1055.75 82.9447L1052.51 82.4904ZM1047.75 78.2823C1048.12 77.0019 1049.5 76.3471 1050.85 76.5375C1052.26 76.7346 1053.24 77.6963 1053.24 79.0539L1047.75 78.2823ZM1071.1 82.8245C1071.53 79.7349 1069.8 76.5823 1066.16 76.0712C1064.9 75.8942 1063.56 76.1179 1062.69 76.7715L1062.81 75.9159L1059.82 75.4951L1057.55 91.6325L1060.55 92.0533L1061.35 86.3256C1062 87.193 1063.23 87.8012 1064.49 87.9782C1068.12 88.4893 1070.67 85.9141 1071.1 82.8245ZM1068.11 82.4036C1067.87 84.1148 1066.42 85.4384 1064.64 85.1879C1063.04 84.9641 1061.6 83.6708 1061.9 81.5319C1062.2 79.3929 1063.94 78.5709 1065.53 78.7947C1067.32 79.0452 1068.35 80.6687 1068.11 82.4036ZM1083.11 78.7684L1082.51 83.0464L1077.07 82.2815L1077.67 78.0035L1074.67 77.5827L1073.09 88.8717L1076.08 89.2926L1076.7 84.8958L1082.14 85.6607L1081.52 90.0575L1084.52 90.4783L1086.1 79.1893L1083.11 78.7684ZM1094.37 80.036C1091.83 79.6786 1089.18 80.5908 1088.15 83.2576L1091.24 83.6918C1091.78 82.7741 1092.81 82.5308 1094.07 82.7079C1095.49 82.9083 1096.63 83.6015 1096.45 84.9086L1093.67 84.5178C1091.03 84.1471 1088.24 84.5064 1087.84 87.3584C1087.5 89.8063 1088.97 91.4186 1091.75 91.8094C1093.2 92.0131 1094.62 91.8741 1095.57 91.1592L1095.45 92.0148L1098.44 92.4357L1099.43 85.4246C1099.84 82.5013 1097.77 80.5136 1094.37 80.036ZM1096.07 87.618C1095.85 89.1391 1094.29 89.7196 1092.68 89.4925C1091.35 89.3054 1090.72 88.5873 1090.83 87.803C1090.96 86.8761 1091.9 86.5481 1093.35 86.7519L1096.13 87.1427L1096.07 87.618ZM1111.69 94.2966L1113.27 83.0076L1107.07 82.1358C1103.96 81.6982 1102.29 83.3549 1101.99 85.5177C1101.76 87.1338 1102.32 88.6667 1103.92 89.5455L1100.33 92.7L1104.2 93.2445L1107.46 90.3826L1109.15 90.6198L1108.69 93.8758L1111.69 94.2966ZM1109.52 88.0054L1106.4 87.5679C1105.38 87.4243 1104.86 86.8179 1104.98 85.9385C1105.11 85.0116 1105.78 84.6198 1106.8 84.7634L1109.91 85.201L1109.52 88.0054ZM1121.69 84.1912L1120.11 95.4803L1123.1 95.9011L1124.32 87.2264L1129.6 87.9679L1128.38 96.6426L1131.37 97.0635L1132.96 85.7744L1121.69 84.1912ZM1144.83 98.9546L1146.42 87.6655L1140.21 86.7937C1137.1 86.3562 1135.44 88.0129 1135.13 90.1756C1134.91 91.7917 1135.47 93.3246 1137.06 94.2035L1133.47 97.358L1137.34 97.9024L1140.6 95.0406L1142.29 95.2777L1141.83 98.5337L1144.83 98.9546ZM1142.66 92.6634L1139.55 92.2258C1138.52 92.0822 1138 91.4758 1138.13 90.5965C1138.26 89.6696 1138.92 89.2778 1139.94 89.4214L1143.05 89.859L1142.66 92.6634ZM1160 89.5741L1148.56 87.9675L1148.2 90.5818L1152.4 91.173L1151.18 99.8477L1154.18 100.269L1155.4 91.5939L1159.63 92.1884L1160 89.5741ZM1170.56 91.0591L1169.96 95.3371L1164.52 94.5722L1165.12 90.2942L1162.13 89.8734L1160.54 101.162L1163.53 101.583L1164.15 97.1865L1169.59 97.9514L1168.98 102.348L1171.97 102.769L1173.56 91.48L1170.56 91.0591ZM1185.42 93.1467L1178.97 99.5355L1179.97 92.3818L1176.98 91.961L1175.39 103.25L1178.39 103.671L1184.84 97.2821L1183.83 104.436L1186.82 104.857L1188.41 93.5676L1185.42 93.1467ZM1190.25 105.338L1200.47 106.774L1200.05 109.768L1202.87 110.166L1203.66 104.557L1201.76 104.29L1202.98 95.6151L1199.99 95.1942L1198.77 103.869L1193.61 103.144L1194.83 94.4694L1191.83 94.0486L1190.25 105.338ZM1212.3 96.6096C1209.75 96.2522 1207.11 97.1644 1206.08 99.8311L1209.17 100.265C1209.71 99.3477 1210.74 99.1044 1212 99.2814C1213.42 99.4818 1214.56 100.175 1214.38 101.482L1211.6 101.091C1208.96 100.721 1206.17 101.08 1205.77 103.932C1205.42 106.38 1206.89 107.992 1209.67 108.383C1211.12 108.587 1212.55 108.448 1213.5 107.733L1213.38 108.588L1216.37 109.009L1217.36 101.998C1217.77 99.0748 1215.7 97.0872 1212.3 96.6096ZM1214 104.192C1213.78 105.713 1212.22 106.293 1210.61 106.066C1209.27 105.879 1208.65 105.161 1208.76 104.377C1208.89 103.45 1209.83 103.122 1211.28 103.325L1214.06 103.716L1214 104.192Z" fill="black"/>
</svg>
